/* XPM */
static char * edgemode_test_xpm[] = {
"48 48 7 1",
". s mask c none",
"+	c #000000",
"@	c #666666",
"#	c #AAAAAA",
"$	c #DDDDDD",
"%	c #888888",
"&	c #FF7700",
"................................................",
"................................................",
"................................................",
"................................................",
"................................................",
".......................++.......................",
".....................++@@++.....................",
"...................++@@@@@@++...................",
".................++@@@@##@@@@++.................",
"...............++@@@@######@@@@++...............",
".............++@@@@##########@@@@++.............",
"...........++@@@@##############@@@@++...........",
".........++@@@@##################@@@@++.........",
".......++@@@@######################@@@@++.......",
".....++@@@@##########################@@@@++.....",
".....+@@@##############################@@@+.....",
".....+@@@@@##########################@@@@@+.....",
".....+@@@@@@@######################@@@@@@@+.....",
".....+@@$@@@@@@##################@@@@@@%@@+.....",
".....+@@$$$@@@@@@##############@@@@@@%%%@@+.....",
".....+@@$$$$$@@@@@@##########@@@@@@%%%%%@@+.....",
".....+@@$$$$$$$@@@@@@######@@@@@@%%%%%%%@@+.....",
".....+@@$$$$$$$$$@@@@@@##@@@@@@%%%%%%%%%@@+.....",
".....+@@$$$$$$$$$$$@@++++++@@%%%%%%%%%%%@@+.....",
".....+@@$$$$$$$$$$$$$+&&&&+%%%%%%%%%%%%%@@+.....",
".....+@@$$$$$$$$$$$$$+&&&&+%%%%%%%%%%%%%@@+.....",
".....+@@$$$$$$$$$$$$$+&&&&+%%%%%%%%%%%%%@@+.....",
".....+@@$$$$$$$$$$$$$+&&&&+%%%%%%%%%%%%%@@+.....",
".....+@@$$$$$$$$$$$$$+&&&&+%%%%%%%%%%%%%@@+.....",
".....+@@$$$$$$$$$$$$$+&&&&+%%%%%%%%%%%%%@@+.....",
".....+@@$$$$$$$$$$$$$+&&&&+%%%%%%%%%%%%%@@+.....",
".....+@@$$$$$$$$$$$$$+&&&&+%%%%%%%%%%%%%@@+.....",
".....+@@@$$$$$$$$$$$$+&&&&+%%%%%%%%%%%%@@@+.....",
".....++@@@@$$$$$$$$$$+&&&&+%%%%%%%%%%@@@@++.....",
".......++@@@@$$$$$$$$+&&&&+%%%%%%%%@@@@++.......",
".........++@@@@$$$$$$+&&&&+%%%%%%@@@@++.........",
"...........++@@@@$$$$+&&&&+%%%%@@@@++...........",
".............++@@@@$$+&&&&+%%@@@@++.............",
"...............++@@@@+&&&&+@@@@++...............",
".................++@@+&&&&+@@++.................",
"...................+++&&&&+++...................",
".....................++++++.....................",
".......................++.......................",
"................................................",
"................................................",
"................................................",
"................................................",
"................................................"};
