/* XPM */
static char * facemode_test_xpm[] = {
"48 48 6 1",
". s mask c none",
"+	c #000000",
"@	c #666666",
"#	c #AAAAAA",
"$	c #DDDDDD",
"%	c #FF7700",
"................................................",
"................................................",
"................................................",
"................................................",
"................................................",
".......................++.......................",
".....................++@@++.....................",
"...................++@@@@@@++...................",
".................++@@@@##@@@@++.................",
"...............++@@@@######@@@@++...............",
".............++@@@@##########@@@@++.............",
"...........++@@@@##############@@@@++...........",
".........++@@@@##################@@@@++.........",
".......++@@@@######################@@@@++.......",
".....++@@@@##########################@@@@++.....",
".....+@@@##############################@@@+.....",
".....+@@@@@##########################@@@@@+.....",
".....+@@@@@@@######################@@@@++@+.....",
".....+@@$@@@@@@##################@@@@++%+@+.....",
".....+@@$$$@@@@@@##############@@@@++%%%+@+.....",
".....+@@$$$$$@@@@@@##########@@@@++%%%%%+@+.....",
".....+@@$$$$$$$@@@@@@######@@@@++%%%%%%%+@+.....",
".....+@@$$$$$$$$$@@@@@@##@@@@++%%%%%%%%%+@+.....",
".....+@@$$$$$$$$$$$@@@@@@@@++%%%%%%%%%%%+@+.....",
".....+@@$$$$$$$$$$$$$@@@@++%%%%%%%%%%%%%+@+.....",
".....+@@$$$$$$$$$$$$$$@@@+%%%%%%%%%%%%%%+@+.....",
".....+@@$$$$$$$$$$$$$$@@@+%%%%%%%%%%%%%%+@+.....",
".....+@@$$$$$$$$$$$$$$@@@+%%%%%%%%%%%%%%+@+.....",
".....+@@$$$$$$$$$$$$$$@@@+%%%%%%%%%%%%%%+@+.....",
".....+@@$$$$$$$$$$$$$$@@@+%%%%%%%%%%%%%%+@+.....",
".....+@@$$$$$$$$$$$$$$@@@+%%%%%%%%%%%%%%+@+.....",
".....+@@$$$$$$$$$$$$$$@@@+%%%%%%%%%%%%%%+@+.....",
".....+@@@$$$$$$$$$$$$$@@@+%%%%%%%%%%%%%+@@+.....",
".....+@@@@@$$$$$$$$$$$@@@+%%%%%%%%%%%++@@@+.....",
"......++@@@@@$$$$$$$$$@@@+%%%%%%%%%++@@@++......",
"........++@@@@@$$$$$$$@@@+%%%%%%%++@@@++........",
"..........++@@@@@$$$$$@@@+%%%%%++@@@++..........",
"............++@@@@@$$$@@@+%%%++@@@++............",
"..............++@@@@@$@@@+%++@@@++..............",
"................++@@@@@@@++@@@++................",
"..................++@@@@@@@@++..................",
"....................++@@@@++....................",
"......................++++......................",
"................................................",
"................................................",
"................................................",
"................................................",
"................................................"};
