/* XPM */
static const char * ffdico_xpm[] = {
"16 16 4 1",
". s mask c none",
"+	c #404040",
"@	c #FF7F00",
"#	c #FFFFFF",
"................",
"......+++.......",
"....++@#@++.....",
"..++@#@++@#++...",
".+#@+++#@++@#+..",
".+@+@#@++@#+@+..",
".+@++@+@#+@+@+..",
".+#@+@++@+@+#+..",
".+@+@@++@+#@@+..",
".+@++#@@#@@+@+..",
".+@++@++@+@+@+..",
".+#@+@++@+@@#+..",
"..++@#++@@#++...",
"....++@@#++.....",
"......+++.......",
"................"};
