/* XPM */
static const char * knife_xpm[] = {
"32 32 5 1",
"   s mask c none",
".	c #000000",
"+	c #FCFCFC",
"@	c #FF0000",
"#	c #FF7F00",
"                                ",
"                                ",
"                                ",
"                                ",
"    ...                         ",
"    ....                        ",
"    .....                       ",
"    ..+...                      ",
"    ..++...                     ",
"    ..+++...                    ",
"    ..++++...                   ",
"    ..+++++...                  ",
"    ..++++++...                 ",
"    ..@++++++...                ",
"    ..@@@+++++...               ",
"    ...@@@@@+++...              ",
"     ...@@@@@@++...             ",
"      ...@@@@@@+...             ",
"       ...@@@@@.......          ",
"        ...@@@... .....         ",
"         ...@...  ..#...        ",
"          ..@..   ..##...       ",
"           .@.    ..###...      ",
"            @     ...###...     ",
"                   ...###...    ",
"            @       ...###..    ",
"                     .......    ",
"                      ......    ",
"                                ",
"                                ",
"                                ",
"                                "};
