/* XPM */
static const char * makeedit_xpm[] = {
"32 32 367 2",
"  s mask c none",
". 	c #030303",
"+ 	c #151515",
"@ 	c #474848",
"# 	c #000000",
"$ 	c #0D0600",
"% 	c #130700",
"& 	c #110600",
"* 	c #140800",
"= 	c #484848",
"- 	c #929292",
"; 	c #250C00",
"> 	c #491F00",
", 	c #572500",
"' 	c #9B3D00",
") 	c #3D4347",
"! 	c #020608",
"~ 	c #9E3D00",
"{ 	c #F45E00",
"] 	c #BD4900",
"^ 	c #010000",
"/ 	c #6C6C6C",
"( 	c #210F00",
"_ 	c #C65800",
": 	c #DC6200",
"< 	c #DE6200",
"[ 	c #8A3A00",
"} 	c #2D3B47",
"| 	c #000008",
"1 	c #813500",
"2 	c #371500",
"3 	c #AFB0B0",
"4 	c #030000",
"5 	c #9E3C00",
"6 	c #220D00",
"7 	c #060200",
"8 	c #D66500",
"9 	c #D46500",
"0 	c #D26300",
"a 	c #C15B00",
"b 	c #401D00",
"c 	c #C75900",
"d 	c #C05500",
"e 	c #D35B00",
"f 	c #C75200",
"g 	c #391600",
"h 	c #141516",
"i 	c #511E00",
"j 	c #DE5500",
"k 	c #060300",
"l 	c #E57200",
"m 	c #D26900",
"n 	c #D36A00",
"o 	c #C16000",
"p 	c #381B00",
"q 	c #DC6900",
"r 	c #D36200",
"s 	c #D35F00",
"t 	c #D35C00",
"u 	c #DB5C00",
"v 	c #170A00",
"w 	c #E85B00",
"x 	c #913800",
"y 	c #B64500",
"z 	c #080300",
"A 	c #211200",
"B 	c #D67000",
"C 	c #D27000",
"D 	c #D37100",
"E 	c #DF7800",
"F 	c #804300",
"G 	c #7A4000",
"H 	c #D86D00",
"I 	c #D36700",
"J 	c #D36400",
"K 	c #E76900",
"L 	c #301600",
"M 	c #CD5600",
"N 	c #D25500",
"O 	c #D75400",
"P 	c #E95900",
"Q 	c #411900",
"R 	c #863200",
"S 	c #251100",
"T 	c #C66B00",
"U 	c #D47600",
"V 	c #D37700",
"W 	c #D37800",
"X 	c #DD7F00",
"Y 	c #593200",
"Z 	c #8C4D01",
"` 	c #E87D00",
" .	c #E27500",
"..	c #D56B00",
"+.	c #020000",
"@.	c #C05400",
"#.	c #D25800",
"$.	c #D35500",
"%.	c #D15100",
"&.	c #DF5500",
"*.	c #000910",
"=.	c #868585",
"-.	c #492900",
";.	c #DC7D00",
">.	c #D27C00",
",.	c #D37E00",
"'.	c #D38000",
").	c #E28A00",
"!.	c #040000",
"~.	c #EAEAEA",
"{.	c #070300",
"].	c #050100",
"^.	c #5C5D5E",
"/.	c #4D575E",
"(.	c #C85A00",
"_.	c #DD5F00",
":.	c #DD5B00",
"<.	c #DD5700",
"[.	c #E35800",
"}.	c #000002",
"|.	c #060C10",
"1.	c #553200",
"2.	c #DB8400",
"3.	c #D38300",
"4.	c #D38600",
"5.	c #D38800",
"6.	c #E29200",
"7.	c #110B00",
"8.	c #050000",
"9.	c #583700",
"0.	c #E68900",
"a.	c #DD7E00",
"b.	c #CC7000",
"c.	c #060000",
"d.	c #080400",
"e.	c #0B1116",
"f.	c #110500",
"g.	c #E95800",
"h.	c #531F00",
"i.	c #140C00",
"j.	c #ED8F00",
"k.	c #D28400",
"l.	c #D38900",
"m.	c #D38D00",
"n.	c #D38F00",
"o.	c #E29A00",
"p.	c #060400",
"q.	c #ED9D00",
"r.	c #DD8F00",
"s.	c #D28300",
"t.	c #D37F00",
"u.	c #D57A00",
"v.	c #8B4C00",
"w.	c #8A4500",
"x.	c #E46E00",
"y.	c #E26700",
"z.	c #EC6600",
"A.	c #3A1000",
"B.	c #AEAFB0",
"C.	c #7F3000",
"D.	c #C74B00",
"E.	c #130800",
"F.	c #110A00",
"G.	c #E28D00",
"H.	c #D38A00",
"I.	c #D38E00",
"J.	c #D39300",
"K.	c #D29500",
"L.	c #EDAA00",
"M.	c #080600",
"N.	c #EBA500",
"O.	c #D18E00",
"P.	c #D57E00",
"Q.	c #8B4F00",
"R.	c #8B4800",
"S.	c #D56A00",
"T.	c #D65E00",
"U.	c #AE4900",
"V.	c #8E3700",
"W.	c #7D2F00",
"X.	c #501E00",
"Y.	c #030100",
"Z.	c #D39400",
"`.	c #D39800",
" +	c #DBA100",
".+	c #564000",
"++	c #241900",
"@+	c #DD9400",
"#+	c #DD8D00",
"$+	c #CC7C00",
"%+	c #CC6600",
"&+	c #DC6800",
"*+	c #D15D00",
"=+	c #EA6300",
"-+	c #E65900",
";+	c #CC4E00",
">+	c #C64B00",
",+	c #0E0500",
"'+	c #E29400",
")+	c #D39100",
"!+	c #D39700",
"~+	c #D39C00",
"{+	c #DCA500",
"]+	c #362400",
"^+	c #E8E8EA",
"/+	c #070500",
"(+	c #050200",
"_+	c #5D5E5E",
":+	c #D66100",
"<+	c #391800",
"[+	c #040100",
"}+	c #C74C00",
"|+	c #C04900",
"1+	c #E29600",
"2+	c #D39900",
"3+	c #D39D00",
"4+	c #D9A400",
"5+	c #7F6101",
"6+	c #5A4300",
"7+	c #EDAC00",
"8+	c #E29D00",
"9+	c #D58500",
"0+	c #391E00",
"a+	c #CF6A00",
"b+	c #D46700",
"c+	c #301500",
"d+	c #A6ACB0",
"e+	c #3C1600",
"f+	c #140D00",
"g+	c #D29200",
"h+	c #D29F00",
"i+	c #EAB200",
"j+	c #F5B600",
"k+	c #D19600",
"l+	c #E68600",
"m+	c #3C2200",
"n+	c #BF6200",
"o+	c #D36600",
"p+	c #E06500",
"q+	c #A64700",
"r+	c #8C3A00",
"s+	c #A04900",
"t+	c #EC6200",
"u+	c #ED5A00",
"v+	c #553900",
"w+	c #DB9600",
"x+	c #D39600",
"y+	c #D39B00",
"z+	c #D49F00",
"A+	c #CB9700",
"B+	c #191200",
"C+	c #E19F00",
"D+	c #D38100",
"E+	c #DC7F00",
"F+	c #311C00",
"G+	c #C86500",
"H+	c #D26500",
"I+	c #D25F00",
"J+	c #E25F00",
"K+	c #231000",
"L+	c #070000",
"M+	c #0E0600",
"N+	c #0D0400",
"O+	c #493000",
"P+	c #DC9400",
"Q+	c #D39A00",
"R+	c #DDA000",
"S+	c #050300",
"T+	c #CD8D00",
"U+	c #CD8800",
"V+	c #D48600",
"W+	c #D47F00",
"X+	c #EC7D00",
"Y+	c #C95E00",
"Z+	c #C05600",
"`+	c #E7E8EA",
" @	c #451500",
".@	c #562700",
"+@	c #251500",
"@@	c #C68100",
"#@	c #D48E00",
"$@	c #D39500",
"%@	c #DD9A00",
"&@	c #303747",
"*@	c #4A2E00",
"=@	c #815000",
"-@	c #804C00",
";@	c #804800",
">@	c #8A4800",
",@	c #060100",
"'@	c #4D565E",
")@	c #3B1800",
"!@	c #482100",
"~@	c #380F00",
"{@	c #2A1401",
"]@	c #2F1200",
"^@	c #211500",
"/@	c #D68900",
"(@	c #D28A00",
"_@	c #D38C00",
":@	c #DD9300",
"<@	c #3C4147",
"[@	c #492B00",
"}@	c #814B00",
"|@	c #804700",
"1@	c #8B4500",
"2@	c #4E575E",
"3@	c #461900",
"4@	c #E45D00",
"5@	c #F26300",
"6@	c #421F00",
"7@	c #622500",
"8@	c #E58F00",
"9@	c #D38500",
"0@	c #AE6B00",
"a@	c #321D00",
"b@	c #D67D00",
"c@	c #D47800",
"d@	c #D47200",
"e@	c #D46C00",
"f@	c #D56800",
"g@	c #C25A00",
"h@	c #AD4A00",
"i@	c #3E1B00",
"j@	c #F66400",
"k@	c #100600",
"l@	c #BD4800",
"m@	c #919292",
"n@	c #D68000",
"o@	c #D27D00",
"p@	c #C17100",
"q@	c #402400",
"r@	c #C76F00",
"s@	c #C06700",
"t@	c #D56D00",
"u@	c #D56900",
"v@	c #C65D00",
"w@	c #BF5300",
"x@	c #AF4C00",
"y@	c #000108",
"z@	c #BE4900",
"A@	c #6D6C6C",
"B@	c #211300",
"C@	c #C66F00",
"D@	c #DC7A00",
"E@	c #DE7A00",
"F@	c #8A4900",
"G@	c #2D3847",
"H@	c #874300",
"I@	c #833E00",
"J@	c #582700",
"K@	c #421B00",
"L@	c #3B1700",
"M@	c #424547",
"N@	c #494848",
"O@	c #492700",
"P@	c #572D00",
"Q@	c #9B4C00",
"R@	c #3D4247",
"S@	c #020508",
"T@	c #974500",
"U@	c #924100",
"V@	c #672D00",
"W@	c #512200",
"X@	c #4B1E00",
"Y@	c #0D0700",
"Z@	c #140900",
"                                                                ",
"                                                                ",
"                                                                ",
"                          . + + + + .                           ",
"                    @ # # $ # # % & * # # =                     ",
"                - # ; > , ' ) ! ~ { ] ^ # # # -                 ",
"              / # ( _ : < [ } | 1 2 # 3 4 5 6 # /               ",
"            / # 7 8 9 0 a b c d e f g h # i j 7 # /             ",
"          - # k l m n m o p q r s t u v w x # y z # -           ",
"          # A B C D C E F G H I J K L M N O P Q R # #           ",
"        @ S T U V W X Y # Z `  ...g +.@.#.$.%.&.*.=.# =         ",
"        # -.;.>.,.'.).!.~.# z {.].^./.(._.:.<.[.}.|.# #         ",
"        # 1.2.3.4.5.6.7.8.9.0.a.b.# c.d.{.z # e.f.g.h.#         ",
"      . i.j.k.l.m.n.o.p.q.r.s.t.u.v.w.x.y.z.A.B.# C.D.E..       ",
"      + F.G.H.I.J.K.L.M.N.O.l.3.P.Q.R.S.r T.U.# V.W.X.Y.+       ",
"      + 7.6.I.Z.`. +.+# ++N.@+#+$+# # %+&+*+=+z -+;+>+,++       ",
"      + 7.'+)+!+~+{+]+^+# M./+/+(+^._+(+v :+<+h [+}+|+,++       ",
"      + 7.1+J.2+3+4+5+# 6+7+8+'+9+0+^ a+b+c+# d+# e+g [++       ",
"      . f+q.g+2+3+h+i+# j+k+)+H.3.l+m+n+o+p+q+r+s+t+u+% .       ",
"        # v+w+x+y+3+z+A+B+C+n.5.D+E+F+G+H+I+J+K+L+M+N+#         ",
"        # O+P+g+!+Q+Q+R+S+T+U+V+W+W X+# Y+Z+M 4 `+ @.@#         ",
"        @ +@@@#@)+Z.$@%@| &@*@=@-@;@>@,@'@+.)@!@~@{@]@@         ",
"          # ^@/@(@_@m.:@| <@[@}@|@F 1@# 2@3@4@5@6@7@#           ",
"          - # p.8@k.9@9@0@a@b@c@d@e@f@g@h@i@j@k@l@# m@          ",
"            / # k n@W+o@p@q@r@s@t@u@v@w@x@y@| z@# A@            ",
"              / # B@C@D@E@F@G@| H@I@J@K@L@M@N@# A@              ",
"                - # S O@P@Q@R@S@T@U@V@W@X@# # -                 ",
"                    @ # # Y@# # Z@* k # # =                     ",
"                          . + + + + .                           ",
"                                                                ",
"                                                                ",
"                                                                "};
