/* XPM */
static const char * matedit_xpm[] = {
"20 20 2 1",
"  s mask c none",
".	c #000000",
"                    ",
"                    ",
"                    ",
"   ..............   ",
"   ....   ...   .   ",
"   ....   ...   .   ",
"   ....   ...   .   ",
"   .   ...   ....   ",
"   .   ...   ....   ",
"   .   ...   ....   ",
"   ....   ...   .   ",
"   ....   ...   .   ",
"   ....   ...   .   ",
"   .   ...   ....   ",
"   .   ...   ....   ",
"   .   ...   ....   ",
"   ..............   ",
"                    ",
"                    ",
"                    "};
