/* XPM */
static char * objectmode_test_xpm[] = {
"48 48 3 1",
". s mask c none",
"+	c #000000",
"@	c #FF7700",
"................................................",
"................................................",
"................................................",
"................................................",
"................................................",
".......................++.......................",
".....................++++++.....................",
"...................++++++++++...................",
".................++++++@@++++++.................",
"...............++++++@@@@@@++++++...............",
".............++++++@@@@@@@@@@++++++.............",
"...........++++++@@@@@@@@@@@@@@++++++...........",
".........++++++@@@@@@@@@@@@@@@@@@++++++.........",
".......++++++@@@@@@@@@@@@@@@@@@@@@@++++++.......",
".....++++++@@@@@@@@@@@@@@@@@@@@@@@@@@++++++.....",
".....++++@@@@@@@@@@@@@@@@@@@@@@@@@@@@@@++++.....",
".....++++++@@@@@@@@@@@@@@@@@@@@@@@@@@++++++.....",
".....++++++++@@@@@@@@@@@@@@@@@@@@@@++++++++.....",
".....+++@++++++@@@@@@@@@@@@@@@@@@++++++@+++.....",
".....+++@@@++++++@@@@@@@@@@@@@@++++++@@@+++.....",
".....+++@@@@@++++++@@@@@@@@@@++++++@@@@@+++.....",
".....+++@@@@@@@++++++@@@@@@++++++@@@@@@@+++.....",
".....+++@@@@@@@@@++++++@@++++++@@@@@@@@@+++.....",
".....+++@@@@@@@@@@@++++++++++@@@@@@@@@@@+++.....",
".....+++@@@@@@@@@@@@@++++++@@@@@@@@@@@@@+++.....",
".....+++@@@@@@@@@@@@@@++++@@@@@@@@@@@@@@+++.....",
".....+++@@@@@@@@@@@@@@++++@@@@@@@@@@@@@@+++.....",
".....+++@@@@@@@@@@@@@@++++@@@@@@@@@@@@@@+++.....",
".....+++@@@@@@@@@@@@@@++++@@@@@@@@@@@@@@+++.....",
".....+++@@@@@@@@@@@@@@++++@@@@@@@@@@@@@@+++.....",
".....+++@@@@@@@@@@@@@@++++@@@@@@@@@@@@@@+++.....",
".....+++@@@@@@@@@@@@@@++++@@@@@@@@@@@@@@+++.....",
".....++++@@@@@@@@@@@@@++++@@@@@@@@@@@@@++++.....",
".....++++++@@@@@@@@@@@++++@@@@@@@@@@@++++++.....",
".......++++++@@@@@@@@@++++@@@@@@@@@++++++.......",
".........++++++@@@@@@@++++@@@@@@@++++++.........",
"...........++++++@@@@@++++@@@@@++++++...........",
".............++++++@@@++++@@@++++++.............",
"...............++++++@++++@++++++...............",
".................++++++++++++++.................",
"...................++++++++++...................",
".....................++++++.....................",
".......................++.......................",
"................................................",
"................................................",
"................................................",
"................................................",
"................................................"};
