/* XPM */
static char * pemico_xpm[] = {
"16 16 5 1",
".  s mask c none",
"+	c #000000",
"@	c #FF7700",
"#	c #FF0000",
"$	c #00FF00",
"................",
".+++++...+++....",
".+@@@+++.+#+....",
".+@@@+@+.+++....",
".+@@@+@+........",
".++++++++.+++...",
"..+$$+##+.+$+...",
"..+$$+##+++++...",
"..+++++++$+.....",
"....+++.++++....",
"....+@+++@@+....",
"....+++#+@@+++..",
"......++++++@+..",
"...........+++..",
"................",
"................"};
