/* XPM */
static const char * playanim_xpm[] = {
"16 16 2 1",
"  s mask c none",
".	c #000000",
"                ",
"                ",
"                ",
"                ",
"    ..          ",
"    ....        ",
"    ......      ",
"    ........    ",
"    ........    ",
"    ......      ",
"    ....        ",
"    ..          ",
"                ",
"                ",
"                ",
"                "};
