/* XPM */
static const char * renderw_xpm[] = {
"32 32 6 1",
"  s mask c none",
".	c #000000",
"+	c #FFFFFF",
"@	c #101010",
"#	c #FCFCFC",
"$	c #FF7F00",
"                                ",
"                                ",
"                                ",
"   ..........................   ",
"   ..........................   ",
"   .++++...++++...++++...+++.   ",
"   .++++...++++...++++...+++.   ",
"   .++++...++++...++++...+++.   ",
"   ..........................   ",
"   ..........................   ",
"   .@@@@@@@@@@@@@@@@@@@@@@@@.   ",
"   .@@@@@@@@@@@@@@@@@@@@@@@@.   ",
"   .@@@@@@@@@@....@@@@@@@@@@.   ",
"   .@@@@@@@..........@@@@@@@.   ",
"   .@@@@@..##..$$..##..@@@@@.   ",
"   .@@@@.###.$$$$$$.###.@@@@.   ",
"   .@@@.####.$$..$$.####.@@@.   ",
"   .@@.####.$$....$$.####.@@.   ",
"   .@@@.####.##..$$.####.@@@.   ",
"   .@@@@.###.##$$$$.###.@@@@.   ",
"   .@@@@@..##..$$..##..@@@@@.   ",
"   .@@@@@@@..........@@@@@@@.   ",
"   .@@@@@@@@@@....@@@@@@@@@@.   ",
"   .@@@@@@@@@@@@@@@@@@@@@@@@.   ",
"   .@@@@@@@@@@@@@@@@@@@@@@@@.   ",
"   .@@@@@@@@@@@@@@@@@@@@@@@@.   ",
"   .@@@@@@@@@@@@@@@@@@@@@@@@.   ",
"   .@@@@@@@@@@@@@@@@@@@@@@@@.   ",
"   ..........................   ",
"                                ",
"                                ",
"                                "};
