/* XPM */
static const char * render_xpm[] = {
"32 32 5 1",
"  s mask c none",
".	c #000000",
"+	c #808080",
"@	c #FBEC6B",
"#	c #949CB7",
"                                ",
"                                ",
"                                ",
"   ..........................   ",
"   ..........................   ",
"   .    ...    ...    ...   .   ",
"   .    ...    ...    ...   .   ",
"   .    ...    ...    ...   .   ",
"   ..........................   ",
"   ..........................   ",
"   .++++++++++++++++++++++++.   ",
"   .++@@+++++++@++++++++++++.   ",
"   .+@++++++++++++++++++@+++.   ",
"   .+@++++++++++++++++++++++.   ",
"   .++@@++++++++++++++++++++.   ",
"   .+++++.+++++++++++++++++..   ",
"   .++++.#.+++++++++++++++.#.   ",
"   .++..##.+++++++@+++++..##.   ",
"   .+.#####.+++++++++++.####.   ",
"   ..######.++++++++++.#####.   ",
"   .########.++++++++.######.   ",
"   .########.....++++.######.   ",
"   .#############..+.#######.   ",
"   .###############.########.   ",
"   .########################.   ",
"   .########################.   ",
"   .########################.   ",
"   .########################.   ",
"   ..........................   ",
"                                ",
"                                ",
"                                "};
