/* XPM */
static char * sculptmode_xpm[] = {
"48 48 5 1",
". s mask c none",
"+	c #666666",
"@	c #FFFFFF",
"#	c #AAAAAA",
"$	c #FF00FF",
"................................................",
"................................................",
"................................................",
"................................................",
"................................................",
"................................................",
"................................................",
"................................................",
"................................................",
"................................................",
"................................................",
"................................................",
".....................+++........................",
"...................+++@++.......................",
"..................+++++++++.....................",
"..................+++++++++++...................",
"................++++#####++++++.................",
"...............+++++#######++++++...............",
"......+++++++++++@+##########++++++.............",
"......+@+++++++++++++##########++@+++...........",
".....++++########++++++++++++++++++++++.........",
".....+++###########++++@+++++++++++++++++.......",
"....+++############+++++++###########+++++++....",
"....+++###########++++$+++++###########+++@+....",
"....+++##########++++$$$++++++#######+++++++....",
"....+@++++++++++++++$$$$$$++++++###+++++++......",
"....+++++++++++++@+$$$$$$$$$++++++++++++........",
"................+++$$$$$$$$$$$++@+++++..........",
"................++++$$$$$$$$$$++++++............",
".................++++$$$$$$$++++++..............",
"..................++++$$$$$+++++................",
"...................++++$$$$+++..................",
"....................++++$$+++...................",
".....................++++++++...................",
"......................++++++....................",
".......................++@+.....................",
"........................+++.....................",
"................................................",
"................................................",
"................................................",
"................................................",
"................................................",
"................................................",
"................................................",
"................................................",
"................................................",
"................................................",
"................................................"};
