/* XPM */
static char * skinmode_test_xpm[] = {
"48 48 5 1",
". s mask c none",
"+	c #000000",
"@	c #FF0000",
"#	c #666666",
"$	c #FFFF00",
"................................................",
"................................................",
"................................................",
".....................++++++.....................",
".....................+@@@@+.....................",
".....................+@@@@+.....................",
".....................+@@@@+.....................",
"...................##+@@@@+##...................",
".................####++++++####.................",
"...............######@@@@@@######...............",
".............######@@@@@@@@@@######.............",
"...........######@@@@@@@@@@@@@@######...........",
"...++++++######@@@@@@@@@@@@@@@@@@######++++++...",
"...+@@@@+####@@@@@@@@@@@@@@@@@@@@@@####+$$$$+...",
"...+@@@@+##@@@@@@@@@@@@@@@@@@@@@@@@@@##+$$$$+...",
"...+@@@@+@@@@@@@@@@@@@@@@@@@@@@@@@@@@@@+$$$$+...",
"...+@@@@+##@@@@@@@@@@@@@@@@@@@@@@@@@@##+$$$$+...",
"...++++++####@@@@@@@@@@@@@@@@@@@@@@####++++++...",
".....###@######@@@@@@@@@@@@@@@@@@######$###.....",
".....###@@@######@@@@++++++@@@@######$$$###.....",
".....###@@@@@######@@+$$$$+@@######$$$$$###.....",
".....###@@@@@@@######+$$$$+######$$$$$$$###.....",
".....###@@@@@@@@@####+$$$$+####$$$$$$$$$###.....",
".....###@@@@@@@@@@@##+$$$$+##$$$$$$$$$$$###.....",
".....###@@@@@@@@@@@@@++++++$$$$$$$$$$$$$###.....",
".....###@@@@@@@@@@@@@@####$$$$$$$$$$$$$$###.....",
".....###@@@@@@@@@@@@@@####$$$$$$$$$$$$$$###.....",
".....###@@@@@@@@@@@@@@####$$$$$$$$$$$$$$###.....",
".....###@@@@@@@@@@@@@@####$$$$$$$$$$$$$$###.....",
".....###@@@@@@@@@@@@@@####$$$$$$$$$$$$$$###.....",
".....###@@@@@@@@@@@@@@####$$$$$$$$$$$$$$###.....",
".....###@@@@@@@@@@@@@@####$$$$$$$$$$$$$$###.....",
"...++++++@@@@@@@@@@@@@####$$$$$$$$$$$$$++++++...",
"...+@@@@+##@@@@@@@@@@@####$$$$$$$$$$$##+$$$$+...",
"...+@@@@+####@@@@@@@@@####$$$$$$$$$####+$$$$+...",
"...+@@@@+######@@@@@@@####$$$$$$$######+$$$$+...",
"...+@@@@+..######@@@@@####$$$$$######..+$$$$+...",
"...++++++....######@@@####$$$######....++++++...",
"...............######@####$######...............",
".................####++++++####.................",
"...................##+$$$$+##...................",
".....................+$$$$+.....................",
".....................+$$$$+.....................",
".....................+$$$$+.....................",
".....................++++++.....................",
"................................................",
"................................................",
"................................................"};
