/* XPM */
static const char * sphere_xpm[] = {
"32 32 223 2",
"  	c None",
". s mask c none",
"+ 	c #000000",
"@ 	c #7D3E00",
"# 	c #7B3D00",
"$ 	c #773B00",
"% 	c #703800",
"& 	c #663300",
"* 	c #5B2E00",
"= 	c #8C4600",
"- 	c #904800",
"; 	c #8F4700",
"> 	c #8D4600",
", 	c #874300",
"' 	c #7F3F00",
") 	c #753B00",
"! 	c #6A3500",
"~ 	c #5D2E00",
"{ 	c #502700",
"] 	c #984B00",
"^ 	c #9E4F00",
"/ 	c #A25000",
"( 	c #A25100",
"_ 	c #974B00",
": 	c #844200",
"< 	c #773C00",
"[ 	c #693500",
"} 	c #5A2D00",
"| 	c #4B2500",
"1 	c #3B1D00",
"2 	c #9D4E00",
"3 	c #A75300",
"4 	c #AF5700",
"5 	c #B35A00",
"6 	c #B45900",
"7 	c #B05800",
"8 	c #A85400",
"9 	c #9D4F00",
"0 	c #914800",
"a 	c #834100",
"b 	c #733A00",
"c 	c #643200",
"d 	c #542A00",
"e 	c #432100",
"f 	c #321900",
"g 	c #9B4D00",
"h 	c #A95400",
"i 	c #B65B00",
"j 	c #C06000",
"k 	c #C66200",
"l 	c #C66300",
"m 	c #C16000",
"n 	c #B75B00",
"o 	c #AA5500",
"p 	c #9C4E00",
"q 	c #6C3600",
"r 	c #4A2400",
"s 	c #381C00",
"t 	c #934900",
"u 	c #A45100",
"v 	c #B45A00",
"w 	c #C36100",
"x 	c #D06800",
"y 	c #D76C00",
"z 	c #D86C00",
"A 	c #D16800",
"B 	c #C46200",
"C 	c #B55B00",
"D 	c #A65200",
"E 	c #944A00",
"F 	c #723900",
"G 	c #603000",
"H 	c #4E2700",
"I 	c #3C1E00",
"J 	c #2A1600",
"K 	c #984C00",
"L 	c #BC5D00",
"M 	c #CC6600",
"N 	c #DC6E00",
"O 	c #E97400",
"P 	c #EA7400",
"Q 	c #DE6F00",
"R 	c #CE6600",
"S 	c #BD5E00",
"T 	c #AC5600",
"U 	c #9A4D00",
"V 	c #633200",
"W 	c #512800",
"X 	c #3F2000",
"Y 	c #2D1700",
"Z 	c #994D00",
"` 	c #AC5500",
" .	c #BF5F00",
"..	c #E27100",
"+.	c #F57A00",
"@.	c #F77B00",
"#.	c #E47200",
"$.	c #D26900",
"%.	c #C05F00",
"&.	c #AE5600",
"*.	c #894500",
"=.	c #653200",
"-.	c #522900",
";.	c #412000",
">.	c #2E1700",
",.	c #1C0E00",
"'.	c #994C00",
").	c #CE6700",
"!.	c #DE6E00",
"~.	c #EB7500",
"{.	c #EC7600",
"].	c #DF7000",
"^.	c #D06700",
"/.	c #BE5F00",
"(.	c #884300",
"_.	c #763B00",
":.	c #401F00",
"<.	c #1B0E00",
"[.	c #A55200",
"}.	c #B65A00",
"|.	c #C56200",
"1.	c #DB6D00",
"2.	c #D46A00",
"3.	c #964A00",
"4.	c #854200",
"5.	c #733900",
"6.	c #613100",
"7.	c #4F2700",
"8.	c #3D1E00",
"9.	c #2B1600",
"0.	c #190C00",
"a.	c #7C3E00",
"b.	c #B95C00",
"c.	c #C36200",
"d.	c #C96500",
"e.	c #C96400",
"f.	c #AD5600",
"g.	c #8E4700",
"h.	c #7E3F00",
"i.	c #6D3600",
"j.	c #5C2E00",
"k.	c #391C00",
"l.	c #271400",
"m.	c #160B00",
"n.	c #743900",
"o.	c #924900",
"p.	c #9F4F00",
"q.	c #B25900",
"r.	c #B35900",
"s.	c #AB5500",
"t.	c #A05000",
"u.	c #552A00",
"v.	c #442200",
"w.	c #341A00",
"x.	c #221100",
"y.	c #110900",
"z.	c #783C00",
"A.	c #9A4C00",
"B.	c #A15000",
"C.	c #A55300",
"D.	c #A15100",
"E.	c #864300",
"F.	c #793C00",
"G.	c #6B3600",
"H.	c #4D2700",
"I.	c #2C1600",
"J.	c #1B0D00",
"K.	c #0B0600",
"L.	c #6B3500",
"M.	c #824000",
"N.	c #8B4400",
"O.	c #824100",
"P.	c #5F2F00",
"Q.	c #512900",
"R.	c #422100",
"S.	c #241100",
"T.	c #140A00",
"U.	c #5E2E00",
"V.	c #683400",
"W.	c #713800",
"X.	c #783D00",
"Y.	c #7D3F00",
"Z.	c #814000",
"`.	c #814100",
" +	c #693400",
".+	c #532900",
"++	c #452200",
"@+	c #371C00",
"#+	c #291500",
"$+	c #0B0500",
"%+	c #582C00",
"&+	c #683300",
"*+	c #6E3700",
"=+	c #623100",
"-+	c #502800",
";+	c #1F0F00",
">+	c #100800",
",+	c #492400",
"'+	c #562B00",
")+	c #4A2500",
"!+	c #412100",
"~+	c #361B00",
"{+	c #1F1000",
"]+	c #120900",
"^+	c #050200",
"/+	c #482400",
"(+	c #402000",
"_+	c #311800",
":+	c #271300",
"<+	c #1D0E00",
"[+	c #110800",
"}+	c #371B00",
"|+	c #331A00",
"1+	c #2F1700",
"2+	c #281400",
"3+	c #201000",
"4+	c #180C00",
"5+	c #0E0700",
"6+	c #261300",
"7+	c #241200",
"8+	c #211100",
"9+	c #1D0F00",
"0+	c #170B00",
". . . . . . . . . . . . . . . . . . . . . . . . . . . . . . . . ",
". . . . . . . . . . . . . . . . . . . . . . . . . . . . . . . . ",
". . . . . . . . . . . . . . . . . . . . . . . . . . . . . . . . ",
". . . . . . . . . . . . . . . . . . . . . . . . . . . . . . . . ",
". . . . . . . . . . . . . + + + + + + . . . . . . . . . . . . . ",
". . . . . . . . . . + + + + + + + + + + + + . . . . . . . . . . ",
". . . . . . . . . + + + + @ # $ % & * + + + + . . . . . . . . . ",
". . . . . . . . + + + = - ; > , ' ) ! ~ { + + + . . . . . . . . ",
". . . . . . . + + > ] ^ / ( ^ _ ; : < [ } | 1 + + . . . . . . . ",
". . . . . . + + - 2 3 4 5 6 7 8 9 0 a b c d e f + + . . . . . . ",
". . . . . + + + g h i j k l m n o p = @ q * r s + + + . . . . . ",
". . . . . + + t u v w x y z A B C D E a F G H I J + + . . . . . ",
". . . . . + + K o L M N O P Q R S T U , ) V W X Y + + . . . . . ",
". . . . + + , Z `  .x ..+.@.#.$.%.&.p *.$ =.-.;.>.,.+ + . . . . ",
". . . . + + , '.o S ).!.~.{.].^./.T U (._.c -.:.Y <.+ + . . . . ",
". . . . + + a E [.}.|.$.1.1.2.l n 3 3.4.5.6.7.8.9.0.+ + . . . . ",
". . . . + + a.> 2 ` b.c.d.e.c.b.f.^ g.h.i.j.| k.l.m.+ + . . . . ",
". . . . + + n.a o.p.o q.n n r.s.t.t 4.) =.u.v.w.x.y.+ + . . . . ",
". . . . + + [ z.4.0 A.B.C.C.D.g 0 E.F.G.j.H.8.I.J.K.+ + . . . . ",
". . . . . + + L.$ M.*.- t t - N.O.z.q P.Q.R.w.S.T.+ + . . . . . ",
". . . . . + + U.V.W.X.Y.Z.`.h.F.F  +P..+++@+#+J.$++ + . . . . . ",
". . . . . + + + %+G &+q *+*+q V.=+} -+v.k.I.;+>++ + + . . . . . ",
". . . . . . + + ,+-+'+} j.~ } '+W )+!+~+I.{+]+^++ + . . . . . . ",
". . . . . . . + + X v./+)+)+/+++(+s _+:+<+[+^++ + . . . . . . . ",
". . . . . . . . + + + ~+s s }+|+1+2+3+4+5++ + + . . . . . . . . ",
". . . . . . . . . + + + + 6+7+8+9+0+>++ + + + . . . . . . . . . ",
". . . . . . . . . . + + + + + + + + + + + + . . . . . . . . . . ",
". . . . . . . . . . . . . + + + + + + . . . . . . . . . . . . . ",
". . . . . . . . . . . . . . . . . . . . . . . . . . . . . . . . ",
". . . . . . . . . . . . . . . . . . . . . . . . . . . . . . . . ",
". . . . . . . . . . . . . . . . . . . . . . . . . . . . . . . . ",
". . . . . . . . . . . . . . . . . . . . . . . . . . . . . . . . "};
