/* XPM */
static char * srvico_xpm[] = {
"16 16 5 1",
". s mask c none",
"+	c #000000",
"@	c #FFFFFF",
"#	c #C4C4F3",
"$	c #FF7F00",
"................",
"...+++..........",
".+++@++++++++++.",
".+#+++########+.",
".++#$++###@@#++.",
"..+##$+##@@##+..",
"..++#$+#####++..",
"....++$+##++....",
".....++++#+.....",
".....++@+++.....",
"......+++.......",
".......$+.......",
"....+++$+.......",
"...++@+++++++...",
"....+++.........",
"................"};
