/* XPM */
static const char * stoprender_xpm[] = {
"32 32 7 1",
"  s mask c none",
".	c #0000FF",
"+	c #000000",
"@	c #FFFFFF",
"#	c #101010",
"$	c #FCFCFC",
"%	c #FF0000",
"................................",
"................................",
"................................",
"...++++++++++++++++++++++++++...",
"...++++++++++++++++++++++++++...",
"...+@@@@+++@@@@+++@@@@+++@@@+...",
"...+@@@@+++@@@@+++@@@@+++@@@+...",
"...+@@@@+++@@@@+++@@@@+++@@@+...",
"...++++++++++++++++++++++++++...",
"...++++++++++++++++++++++++++...",
"...+#########$$$$$$#########+...",
"...+########$%%%%%%$########+...",
"...+#######$%%%%%%%%$#######+...",
"...+######$%%%%%%%%%%$######+...",
"...+#####$%%%%%%%%%%%%$#####+...",
"...+####$%%%%%%%%%%%%%%$####+...",
"...+###$%$$@@$$%$$@%$$$%$###+...",
"...+###$%$%%%@%%@%@%$%$%$###+...",
"...+###$%$$@%@%%@%@%$$$%$###+...",
"...+###$%%%@%@%%@%@%$%%%$###+...",
"...+###$%$$@%@%%$$@%$%%%$###+...",
"...+###$%%%%%%%%%%%%%%%%$###+...",
"...+####$%%%%%%%%%%%%%%$####+...",
"...+#####$%%%%%%%%%%%%$#####+...",
"...+######$%%%%%%%%%%$######+...",
"...+#######$%%%%%%%%$#######+...",
"...+########$%%%%%%$########+...",
"...+#########$$$$$$#########+...",
"...++++++++++++++++++++++++++...",
"................................",
"................................",
"................................"};
