/* XPM */
static const char * torico_xpm[] = {
"16 16 3 1",
". s mask c none",
"+	c #404040",
"@	c #FF7F00",
"................",
"................",
".....+++++......",
"...+++++++++....",
"..+++@@@@@+++...",
".+++@@+++@@+++..",
".++@@+...+@@++..",
".++@@+...+@@++..",
".++@@@+++@@@++..",
".+++@@@@@@@+++..",
"..+++@@@@@+++...",
"...+++++++++....",
".....+++++......",
"................",
"................",
"................"};
