/* XPM */
static char * tubico_xpm[] = {
"16 16 13 1",
" 	c None",
". s mask c none",
"+	c #404040",
"@	c #B15900",
"#	c #B05800",
"$	c #B25900",
"%	c #FF7F00",
"&	c #B35900",
"*	c #B45A00",
"=	c #B55A00",
"-	c #B15800",
";	c #B35A00",
">	c #B55B00",
"................",
"................",
"...+++++++++....",
"..+++++++++++...",
"..+@#$%%%%%++...",
".++&#*%%%%%%++..",
".+=@+$*%%%%%++..",
".+##+#-%%%%%++..",
".+;;+-@%%%%%++..",
".++;@>%%%%%%++..",
"..+@##%%%%%++...",
"..+++++++++++...",
"...+++++++++....",
"................",
"................",
"................"};
