/* XPM */
static char * uvwmapmode_test_xpm[] = {
"48 48 5 1",
". s mask c none",
"+	c #666666",
"@	c #AAAAAA",
"#	c #FFFFFF",
"$	c #000000",
"................................................",
"................................................",
"................................................",
"................................................",
"................................................",
".......................++.......................",
".....................++++++.....................",
"...................++++++++++...................",
".................++++++@@++++++.................",
"...............++++++@@@@@@++++++...............",
".............++++++@@@@@@@@@@++++++.............",
"...........++++++@@@@@@@@@@@@@@++++++...........",
".........++++++@@@@@@@@@@@@@@@@@@++++++.........",
".......++++++@@@@@@@@@@@@@@@@@@@@@@++++++.......",
".....++++++@@@@@@@@@@@@@@@@@@@@@@@@@@++++++.....",
".....++++@@@@@@@@@@@@@@@@@@@@@@@@@@@@@@++++.....",
".....++++++@@@@@@@@@@@@@@@@@@@@@@@@@@++++++.....",
".....++++++++@@@@@@@@@@@@@@@@@@@@@@++++++++.....",
".....+++#++++++@@@@@@@@@@@@@@@@@@++++++$+++.....",
".....+++###++++++@@@@@@@@@@@@@@++++++$$$+++.....",
".....+++#####++++++@@@@@@@@@@++++++$$$$$+++.....",
".....+++#######++++++@@@@@@++++++$$$$$$$+++.....",
".....+++#######$$++++++@@++++++##$$$$$$$+++.....",
".....+++#######$$$$++++++++++####$$$$$$$+++.....",
".....+++#######$$$$$$++++++######$$$$$$$+++.....",
".....+++#######$$$$$$$++++#######$$$$$$$+++.....",
".....+++$######$$$$$$$++++#######$$$$$$#+++.....",
".....+++$$$####$$$$$$$++++#######$$$$###+++.....",
".....+++$$$$$##$$$$$$$++++#######$$#####+++.....",
".....+++$$$$$$$##$$$$$++++#####$$#######+++.....",
".....+++$$$$$$$####$$$++++###$$$$#######+++.....",
".....+++$$$$$$$######$++++#$$$$$$#######+++.....",
".....++++$$$$$$#######++++$$$$$$$######++++.....",
".....++++++$$$$#######++++$$$$$$$####++++++.....",
".......++++++$$#######++++$$$$$$$##++++++.......",
".........++++++#######++++$$$$$$$++++++.........",
"...........++++++#####++++$$$$$++++++...........",
".............++++++###++++$$$++++++.............",
"...............++++++#++++$++++++...............",
".................++++++++++++++.................",
"...................++++++++++...................",
".....................++++++.....................",
".......................++.......................",
"................................................",
"................................................",
"................................................",
"................................................",
"................................................"};
