/* XPM */
static char * axismode_test_xpm[] = {
"48 48 9 1",
". s mask c none",
"+	c #000000",
"@	c #00FF00",
"#	c #666666",
"$	c #AAAAAA",
"%	c #DDDDDD",
"&	c #888888",
"*	c #FF0000",
"=	c #0000FF",
"................................................",
"................................................",
"................................................",
".......................++.......................",
"......................+@@+......................",
".....................+@@@@+.....................",
"....................+@@@@@@+....................",
".....................++@@@@+....................",
"......................+@@++.....................",
"......................+@@+......................",
"......................+@@+......................",
".....................#+@@+#.....................",
"...................###+@@+###...................",
".................#####+@@+#####.................",
"...............######$+@@+$######...............",
".............######$$$+@@+$$$######.............",
"...........######$$$$$++@+$$$$$######...........",
"...........####$$$$$$$$+++$$$$$$$####...........",
"...........######$$$$$$$$$$$$$$######...........",
"...........########$$$$$$$$$$########...........",
"...........##%%######$$$$$$######&&##...........",
"...........##%%%%######$$######&&&&##...........",
"...........##%%%%%%##########&&&&&&##...........",
"...........##%%%%%%%%######&&&&&&&&##...........",
"...........##%%%%%%%%%####&&&&&&&&&##...........",
"...........##%%%++%%%%####&&&&++&&&##...........",
"...........##%++**+%%%####&&&+==++&##...........",
"...........#++****+%%%####&&&+====++#...........",
"..........++****++%%%%####&&&&++====++..........",
"...++...++****++%%%%%%####&&&&&&++====++...++...",
"...+*+++****++#%%%%%%%####&&&&&&&#++====+++=+...",
"...+******++#####%%%%%####&&&&&#####++======+...",
"...+****++...######%%%####&&&######...++====+...",
"...+*****+.....######%####&######.....+=====+...",
"...+++++++.......##############.......+++++++...",
"...................##########...................",
".....................######.....................",
".................++....##....++.................",
"...................++......++...................",
".....................++..++.....................",
".................++....++....++.................",
".................++++......++++.................",
"...................++++..++++...................",
".....................++++++.....................",
".......................++.......................",
"................................................",
"................................................",
"................................................"};
