/* XPM */
static char * axismode_xpm[] = {
"53 48 5 1",
". s mask c none",
"+	c #000000",
"@	c #00FF00",
"#	c #0000FF",
"$	c #FF0000",
".....................................................",
".....................................................",
".....................................................",
".....................................................",
".....................................................",
".....................................................",
".....................++..............................",
"....................++++.............................",
"...................++@@++............................",
"..................++@@@@++...........................",
".................++++@@++++..........................",
"....................+@@+.............................",
"....................+@@+.............................",
"....................+@@+.............................",
"....................+@@+.............................",
"....................+@@+.............................",
"....................+@@+.............................",
"....................+@@+.............................",
"....................+@@+.............................",
"....................+@@+.............................",
"....................+@@+.............................",
"....................+@@+.............................",
"....................+@@+.............................",
"....................+@@+.............................",
"....................+@@+.............................",
"....................+@@+...............+.............",
"....................+@@+..............+++............",
"....................+@@++++++++++++++++#++...........",
"...................++@@##################++..........",
"..................++$$$##################++..........",
".................++$$$+++++++++++++++##+++...........",
"................++$$$++.............++++.............",
"...............++$$$++.............+++...............",
"..............++$$$++................................",
".............++$$$++.................................",
"............++$$$++..................................",
"........+++++$$++++++................................",
".........++$$$$$+++..................................",
"..........++$++++....................................",
"...........+++.......................................",
".....................................................",
".....................................................",
".....................................................",
".....................................................",
".....................................................",
".....................................................",
".....................................................",
"....................................................."};
