/* XPM */
static const char * bonico_xpm[] = {
"16 16 3 1",
". s mask c none",
"+	c #404040",
"@	c #FBEC6B",
"................",
"................",
"....++++........",
"....++++........",
"..+++@++........",
"..++@@+++.......",
"..++++@+++......",
"..+++++@+++.....",
".....+++@+++++..",
"......+++@++++..",
".......+++@@++..",
"........++@+++..",
"........++++....",
"........++++....",
"................",
"................"};
