/* XPM */
static const char * camico_xpm[] = {
"16 16 4 1",
". s mask c none",
"+	c #404040",
"@	c #000000",
"#	c #FF0000",
"................",
"..+++...+++.....",
".+++++.+++++....",
".++@++.++@++....",
".+++++.+++++....",
"..+++...+++.....",
".+++++++++++..+.",
".+++++++++++.++.",
".++@@@@@#@+++++.",
".++@@@@@@@+++++.",
".++@@@@@@@+++++.",
".++@@@@@@@+++++.",
".+++++++++++.++.",
".+++++++++++..+.",
"................",
"................"};
