/* XPM */
static const char * cube_xpm[] = {
"16 16 3 1",
" 	c None",
".	c #FFFFFF",
"+	c #404040",
"................",
".......+........",
".....+++++......",
"...++..+..++....",
".++....+....++..",
".+.....+.....+..",
".+.....+.....+..",
".+.....+.....+..",
".+.....+.....+..",
".+....+++....+..",
".+.+++...+++.+..",
".++.........++..",
"...+++...+++....",
"......+++.......",
"................",
"................"};
