/* XPM */
static const char * cylico_xpm[] = {
"16 16 5 1",
". s mask c none",
"+	c #404040",
"@	c #FF7F00",
"#	c #808080",
"$	c #000000",
"................",
"................",
"...+++++++++....",
"..+++++++++++...",
"..+++@@@@@@++...",
".++#$+@@@@@@++..",
".++#$+@@@@@@++..",
".++#$+@@@@@@++..",
".++#$+@@@@@@++..",
".++#$+@@@@@@++..",
"..+++@@@@@@++...",
"..+++++++++++...",
"...+++++++++....",
"................",
"................",
"................"};
