/* XPM */
static const char * cylinder_xpm[] = {
"37 32 28 1",
" 	c None",
".  s mask c none",
"+	c #000000",
"@	c #AC4600",
"#	c #A24200",
"$	c #983E00",
"%	c #B24900",
"&	c #AA4500",
"*	c #A04100",
"=	c #AE4700",
"-	c #A84400",
";	c #8C3900",
">	c #9A3F00",
",	c #8E3A00",
"'	c #A64400",
")	c #903B00",
"!	c #823500",
"~	c #923B00",
"{	c #7E3300",
"]	c #863700",
"^	c #2E1200",
"/	c #2A1100",
"(	c #301300",
"_	c #8A3800",
":	c #321400",
"<	c #9E4000",
"[	c #281000",
"}	c #381600",
".....................................",
".....................................",
".....................................",
".....................................",
".....................................",
".......+++...........................",
"......+@#$++.........................",
".....+%%@&*$+++......................",
".....+@===@-*$;++....................",
".....+>&@==@&-*$,+++.................",
"......+>-@=%=@&'*$)!++...............",
".......+>-@====@&#*$)!+++............",
"........+>'@@=%=@&-'*>~;{++..........",
".........+>#&@===@@&-'*!+++++........",
".........+]$#&@@=%=@@'++^/^^^+.......",
"..........+]$#-@@==%&+^^^((^^/+......",
"...........+]$*-@@=%+^^((((((^^+.....",
"............+_$*-&@+:^((((((((/+.....",
".............+_$*'@+^(((((((((^+.....",
"..............+_$<+(^(((((((((^+.....",
"...............+_$+^(((((((((([+.....",
"................+;+^(((((((((^+......",
".................++^(((((((((/+......",
".................++^((((((((^+.......",
"..................+:^((((((^(+.......",
"...................+^^(((^^(+........",
"....................+}/^/((+.........",
".....................++++++..........",
".....................................",
".....................................",
".....................................",
"....................................."};
