/* XPM */
static const char * defico_xpm[] = {
"16 16 2 1",
". s mask c none",
"+	c #404040",
"................",
"................",
"......+++.......",
".....+++++......",
"....+++.+++.....",
"....++...++.....",
".........++.....",
"........+++.....",
".......+++......",
"......+++.......",
"......++........",
"................",
"......++........",
"......++........",
"................",
"................"};
