/* XPM */
static const char * edgemode_xpm[] = {
"48 48 4 1",
"   s mask c none",
".	c #000000",
"+	c #FF7F00",
"@	c #FFFFFF",
"                                                ",
"                                                ",
"                                                ",
"                                                ",
"    ........................................    ",
"    ..+++++++++++++++++..++++++++++++++++...    ",
"    ..+++++++++++++++++..+++++++++++++++....    ",
"    ......................................+.    ",
"    ..@@@@@@@@@@@@@@@@....@@@@@@@@@@@@@@.++.    ",
"    ..@@@@@@@@@@@@@@@@.++.@@@@@@@@@@@@@@.++.    ",
"    ..@@@@@@@@@@@@@@@@.++.@@@@@@@@@@@@@@.++.    ",
"    ..@@@@@@@@@@@@@@@@.++.@@@@@@@@@@@@@@.++.    ",
"    ..@@@@@@@@@@@@@@@@.++.@@@@@@@@@@@@@@.++.    ",
"    ..@@@@@@@@@@@@@@@@.++.@@@@@@@@@@@@@@.++.    ",
"    ..@@@@@@@@@@@@@@@@.++.@@@@@@@@@@@@@@.++.    ",
"    ..@@@@@@@@@@@@@@@@.++.@@@@@@@@@@@@@@.++.    ",
"    ..@@@@@@@@@@@@@@@@.++.@@@@@@@@@@@@@@.++.    ",
"    ..@@@@@@@@@@@@@@@@.++.@@@@@@@@@@@@@@.++.    ",
"    ..@@@@@@@@@@@@@@@@.++.@@@@@@@@@@@@@@.++.    ",
"    ..@@@@@@@@@@@@@@@@.++.@@@@@@@@@@@@@@.++.    ",
"    ..@@@@@@@@@@@@@@@@.++.@@@@@@@@@@@@@@.++.    ",
"    ..@@@@@@@@@@@@@@@@.++.@@@@@@@@@@@@@@.++.    ",
"    ..@@@@@@@@@@@@@@@@.++.@@@@@@@@@@@@@@.++.    ",
"    ..@@@@@@@@@@@@@@@@.++.@@@@@@@@@@@@@@.++.    ",
"    ........................................    ",
"    ........................................    ",
"    ..@@@@@@@@@@@@@@@@@..@@@@@@@@@@@@@@@.++.    ",
"    ..@@@@@@@@@@@@@@@@@..@@@@@@@@@@@@@@@.++.    ",
"    ..@@@@@@@@@@@@@@@@@..@@@@@@@@@@@@@@@.++.    ",
"    ..@@@@@@@@@@@@@@@@@..@@@@@@@@@@@@@@@.++.    ",
"    ..@@@@@@@@@@@@@@@@@..@@@@@@@@@@@@@@@.++.    ",
"    ..@@@@@@@@@@@@@@@@@..@@@@@@@@@@@@@@@.++.    ",
"    ..@@@@@@@@@@@@@@@@@..@@@@@@@@@@@@@@@.++.    ",
"    ..@@@@@@@@@@@@@@@@@..@@@@@@@@@@@@@@@.++.    ",
"    ..@@@@@@@@@@@@@@@@@..@@@@@@@@@@@@@@@.++.    ",
"    ..@@@@@@@@@@@@@@@@@..@@@@@@@@@@@@@@@.++.    ",
"    ..@@@@@@@@@@@@@@@@@..@@@@@@@@@@@@@@@.++.    ",
"    ..@@@@@@@@@@@@@@@@@..@@@@@@@@@@@@@@@.++.    ",
"    ..@@@@@@@@@@@@@@@@@..@@@@@@@@@@@@@@@.++.    ",
"    ..@@@@@@@@@@@@@@@@@..@@@@@@@@@@@@@@@.++.    ",
"    ..@@@@@@@@@@@@@@@@@..@@@@@@@@@@@@@@@.++.    ",
"    ..@@@@@@@@@@@@@@@@@..@@@@@@@@@@@@@@@.++.    ",
"    ........................................    ",
"    ........................................    ",
"                                                ",
"                                                ",
"                                                ",
"                                                "};
