/* XPM */
static const char * enaico_xpm[] = {
"16 16 3 1",
"   s mask c none",
".	c #404040",
"+	c #2A932A",
"                ",
"                ",
"           ...  ",
"          ..+.. ",
"         ..++.. ",
"  ...   ..++..  ",
"  .... ..++..   ",
"  ..+...++..    ",
"   ..++++..     ",
"    ..++..      ",
"     ....       ",
"      ..        ",
"                ",
"                ",
"                ",
"                "};
