/* XPM */
static char * eraser_xpm[] = {
"32 32 4 1",
"   s mask c none",
"+	c #000000",
"@	c #D267A3",
"$	c #FFFFFF",
"                                ",
"                                ",
"                                ",
"                     +          ",
"                    +++         ",
"                   ++@++        ",
"                  ++@@@++       ",
"                 ++@@@@@++      ",
"                ++@@@@@@@++     ",
"               ++@@@@@@@@@++    ",
"              ++@@@@@@@@@@@++   ",
"             ++@@@@@@@@@@@++    ",
"            ++@@@@@@@@@@@++     ",
"           ++@@@@@@@@@@@++      ",
"          ++@@@@@@@@@@@++       ",
"         ++@@@@@@@@@@@++        ",
"        +++@@@@@@@@@@++         ",
"       ++$++@@@@@@@@++          ",
"      ++$$$++@@@@@@++           ",
"     ++$$$$$++@@@@++            ",
"    ++$$$$$$$++@@++             ",
"     ++$$$$$$$++++              ",
"      ++$$$$$$$++               ",
"       ++$$$$$++                ",
"        ++$$$++                 ",
"         ++$++                  ",
"          +++                   ",
"           +                    ",
"                                ",
"                                ",
"                                ",
"                                "};
