/* XPM */
static const char * eyesht_xpm[] = {
"16 16 4 1",
". s mask c none",
"+	c #404040",
"@	c #9A9A9A",
"#	c #000000",
"................",
"................",
"................",
"................",
"......++++......",
"....++@@@@+.....",
"...#+@@@@@@+....",
".+####@@@@@+....",
"..+#########+...",
"....#####++++...",
"......++++......",
"................",
"................",
"................",
"................",
"................"};
