/* XPM */
static const char * horz_xpm[] = {
"16 16 3 1",
"  	c None",
".	c #000000",
"+	c #FF7F00",
"                ",
"                ",
"                ",
"                ",
"    ..          ",
"    ...         ",
"    .+..        ",
"    .++..       ",
"    .++..       ",
"    .+..        ",
"    ...         ",
"    ..          ",
"                ",
"                ",
"                ",
"                "};
