/* XPM */
static const char * ligico_xpm[] = {
"16 16 4 1",
". s mask c none",
"+	c #404040",
"@	c #FFFF00",
"#	c #74602B",
"................",
".....++++++.....",
"....++++++++....",
"...+++@@@@+++...",
"..+++@@@@@@+++..",
"..++@@@++@@@++..",
"..++@@+@@+@@++..",
"..++@@@@@@@@++..",
"...++@@@@@@++...",
"....++@@@@++....",
".....++++++.....",
"......++++......",
"......#++#......",
".......##.......",
"................",
"................"};
