/* XPM */
static const char * mesico_xpm[] = {
"16 16 4 1",
". s mask c none",
"+	c #404040",
"@	c #FFFFFF",
"#	c #7A8D98",
"................",
".......+++......",
".......+@+......",
"......+++++.....",
"...++++###++....",
"...+@+#####++...",
"...++++#####+++.",
".+++##+#####+@+.",
".+@+###+###++++.",
".+++###+##++....",
"...++###+++.....",
"....++++@+......",
"....+@++++......",
"....+++.........",
"................",
"................"};
