/* XPM */
static const char * newfile_xpm[] = {
"32 32 3 1",
"  s mask c none",
".	c #000000",
"+	c #FCFCFC",
"                                ",
"                                ",
"                                ",
"     ...................        ",
"     ....................       ",
"     ..+++++++++++++..+...      ",
"     ..+++++++++++++..++...     ",
"     ..+++++++++++++..+++..     ",
"     ..+++++++++++++.......     ",
"     ..+++++++++++++.......     ",
"     ..++++++++++++++++++..     ",
"     ..++++++++++++++++++..     ",
"     ..++++++++++++++++++..     ",
"     ..++++++++++++++++++..     ",
"     ..++++++++++++++++++..     ",
"     ..++++++++++++++++++..     ",
"     ..++++++++++++++++++..     ",
"     ..++++++++++++++++++..     ",
"     ..++++++++++++++++++..     ",
"     ..++++++++++++++++++..     ",
"     ..++++++++++++++++++..     ",
"     ..++++++++++++++++++..     ",
"     ..++++++++++++++++++..     ",
"     ..++++++++++++++++++..     ",
"     ..++++++++++++++++++..     ",
"     ..++++++++++++++++++..     ",
"     ..++++++++++++++++++..     ",
"     ......................     ",
"     ......................     ",
"                                ",
"                                ",
"                                "};
