/* XPM */
static const char * objectmode_xpm[] = {
"53 48 7 1",
". s mask c none",
"+	c #9A9A9A",
"@	c #000000",
"#	c #FF7F00",
"$	c #703801",
"%	c #FF5C00",
"&	c #A05710",
".....................................................",
".....................................................",
".....................................................",
".....................................................",
".............+@@@++..................................",
"............+@@@@@@@@++..............................",
"...........+@@@@#$@@@@@@@@++.........................",
"..........+@@$@@####$$@@@@@@@@+......................",
".........+@@$%@@########$$@@@@@@@....................",
"........+@@$%%@@############$$@@@....................",
".......+@@$%%%@@###############@@....................",
".......@@$%%%%@@###############@@....................",
".......@@%%%%%@@###############@@+...................",
".......@@%%%%%@@###############@@@@+.................",
".......@@%%%%%@@###############@@@@@@+...............",
".......@@%%%%%@@###############@@&&@@@+..............",
".......@@%%%%%@@###############@@###&@@+.............",
".......@@%%%%%@@###############@@####&@@+............",
".......@@%%%%%@@###############@@#####&@@............",
".......@@%%%%%@@###############@@######&@+...........",
".......@@%%%%%@@###############@@#######@@...........",
".......@@%%%%%@@###############@@#######@@...........",
".......@@%%%%%@@###############@@#######@@+..........",
".......@@%%%%%@@###############@@#######&@@..........",
".......@@%%%%%@@###############@@#######&@@..........",
".......@@%%%%$@@$$#############@@#######&@@..........",
".......@@%%$@@@@@@@@@@$$$######@@#######&@@..........",
".......@@$@@@@$$$$$@@@@@@@@@$$#@@#######&@@..........",
".......@@@@@$$%%%%%%%%%%%$$@@@@@@#######&@@..........",
".......@@@@@@@@@@@@@@@@@@@@@@@@@@#######&@@..........",
"............@@@@@@@@@@@@@@&&&###########@@+..........",
"...............+@@&#####################@@...........",
"................@@&#####################@@...........",
"................+@@####################&@+...........",
".................@@&##################&@@............",
".................+@@&################&@@+............",
"..................+@@&##############&@@+.............",
"...................+@@&############&@@+..............",
"....................+@@@&&#######&@@@+...............",
"......................+@@@@@@@@@@@@+.................",
"........................+@@@@@@@@+...................",
".....................................................",
".....................................................",
".....................................................",
".....................................................",
".....................................................",
".....................................................",
"....................................................."};
