/* XPM */
static char * pathmode_xpm[] = {
"48 48 9 1",
"   s mask c none",
".	c #000000",
"+	c #00FF00",
"@	c #FFFFFF",
"#	c #FF7700",
"$	c #666666",
"%	c #AAAAAA",
"&	c #DDDDDD",
"*	c #888888",
"                                                ",
"                                                ",
"                                                ",
"                                                ",
"                            ..                  ",
"                            .+..                ",
"                  ...        .@@..              ",
"                  .##......   ..@@...           ",
"                   ..######........@..          ",
"                     ......#######...@..        ",
"                           ........#..@@..      ",
"                      ..          .#. ..@@.     ",
"                    ..$$..        .#.   ..+.    ",
"                  ..$$$$$$..      .#.     ..    ",
"                ..$$$$%%$$$$..    .#.           ",
"              ..$$$$%%%%%%$$$$..  .#.           ",
"            ..$$$$%%%%%%%%%%$$$$..##.           ",
"          ..$$$$%%%%%%%%%%%%%%$$$$..            ",
"          .$$$%%%%%%%%%%%%%%%%%%$$$.            ",
"          .$$$$$%%%%%%%%%%%%%%$$$$$.            ",
"          .$$$$$$$%%%%%%%%%%$$$$$$$.            ",
"          .$$&$$$$$$%%%%%%$$$$$$*$$.            ",
"          .$$&&&$$$$$$%%$$$$$$***$$.            ",
"          .$$&&&&&$$$$$$$$$$*****$$.            ",
"   ...    .$$&&&&&&&$$$$$$*******$$.            ",
"   .+.    .$$&&&&&&&&&$$*********$$.            ",
"   .@.    .$$&&&&&&&&&$$*********$$.            ",
"   .@.    .$$&&&..&&&&$$*********$$.            ",
"   .@.    .$$...##&&&&$$*********$$.            ",
"   .@@.   ...###..&&&&$$*********$$.            ",
"    .@.  ..##...&&&&&&$$*********$$.            ",
"    .@. .##..$&&&&&&&&$$********$$$.            ",
"    .@..#...$$$$&&&&&&$$******$$$$..            ",
"    .@.#.   ..$$$$&&&&$$****$$$$..              ",
"    .@.#.     ..$$$$&&$$**$$$$..                ",
"     ..#.       ..$$$$$$$$$$..                  ",
"     ..#.         ..$$$$$$..     ..             ",
"     .@.#.          ..$$..       ..             ",
"     .@.##.           ..         .......        ",
"     .@@.##....              ..  .......        ",
"      .@...####...           ..                 ",
"      .@.  ....###......     .......            ",
"      .@.      ...#####.     .......            ",
"      .+.         .....                         ",
"      ...                                       ",
"                                                ",
"                                                ",
"                                                "};
