/* XPM */
static char * pathmode_xpm[] = {
"48 48 8 1",
"   s mask c none",
".	c #000000",
"+	c #FFFFFF",
"@	c #00FF00",
"#	c #FF7700",
"$	c #BBBBBB",
"%	c #444444",
"&	c #808080",
"                                                ",
"                                                ",
"                                                ",
"    ...                                         ",
"    .+.                                         ",
"    ...                           .....         ",
"     .@.                      ....#####         ",
"     .@.                ......#####....         ",
"      .@.           ....######.....             ",
"      .@.        ...#####.....                  ",
"      .@.      ..###.....                       ",
"       .@.    .##...                            ",
"       .@.   .##.                               ",
"       .@.  .#..                                ",
"        .@..##.     ..........                  ",
"        .@..#.      ..$$$$$$$$.         ...     ",
"         ..##.      .%..........        .+.     ",
"         .@.##...   .%.&&&&&&&&.        ...     ",
"         .@...###....%.&&&&&&&&.        .@.     ",
"          .@. ...###.%.&&&&&&&&.        .@.     ",
"          .@.    ....%.&&&&&&&&..       .@.     ",
"          .@.       .%.&&&&&&&&.#..     .@.     ",
"           .@.      .%.&&&&&&&&.###..   .@.     ",
"           .@.      .%.&&&&&&&&...###.. .@.     ",
"           .@.       ..&&&&&&&&.  ..###..@.     ",
"            .@.       ..........    ..#..@.     ",
"            .@.                       .#.@.     ",
"            ....                      .#.@.     ",
"             .+.                      .#.@.     ",
"             ...                      .#.@.     ",
"                                     .##.@.     ",
"                                     .#..@.     ",
"                                   ..#. .@.     ",
"                                 ..##.  .@.     ",
"                              ...###.   .@.     ",
"                            ..###...    .@.     ",
"              ..............###..       .@.     ",
"          ....##############...         .@.     ",
"        ..#####.............            .@.     ",
"       .##.....                         .@.     ",
"      .#..                              ...     ",
"      .#.                               .+.     ",
"      .#.                               ...     ",
"                                                ",
"                                                ",
"                                                ",
"                                                ",
"                                                "};
