/* XPM */
static char * pen_xpm[] = {
"32 32 4 1",
"   s mask c none",
"+	c #000000",
"@	c #FFFFFF",
"$	c #FF7F00",
"                                ",
"                                ",
"                                ",
"                        +++     ",
"                       +++++    ",
"                      +++@+++   ",
"                     +++@@@++   ",
"                    +++++@+++   ",
"                   +++$+++++    ",
"                  +++$$$+++     ",
"                 +++$$$+++      ",
"                +++$$$+++       ",
"               +++$$$+++        ",
"              +++$$$+++         ",
"             +++$$$+++          ",
"            +++$$$+++           ",
"           +++$$$+++            ",
"          +++$$$+++             ",
"         +++$$$+++              ",
"        +++$$$+++               ",
"       +++$$$+++                ",
"      +++$$$+++                 ",
"     +++$$$+++                  ",
"     +++$$+++                   ",
"     +++++++                    ",
"     ++++++                     ",
"     +++++                      ",
"                                ",
"                                ",
"                                ",
"                                ",
"                                "};
