/* XPM */
static const char * plnico_xpm[] = {
"16 16 3 1",
". s mask c none",
"+	c #404040",
"@	c #FF7F00",
"................",
".......++.......",
"......++++......",
".....++@@++.....",
"....++@@@@++....",
"...++@@@@@@++...",
"..++@@@@@@@@++..",
".++@@@@@@@@@@++.",
".++@@@@@@@@@@++.",
"..++@@@@@@@@++..",
"...++@@@@@@++...",
"....++@@@@++....",
".....++@@++.....",
"......++++......",
".......++.......",
"................"};
