/* XPM */
static char * savetexas_xpm[] = {
"32 32 5 1",
"   s mask c none",
".	c #214C7C",
"+	c #FFFFFF",
"@	c #FCFCFC",
"#	c #000000",
"                                ",
"                                ",
"                                ",
"   ..........................   ",
"   ..........................   ",
"   .+@.@@@@@@@@@@@@@@@@+++++.   ",
"   .++.@@@@@@@@@@@@@@@@+++++.   ",
"   ....@##@##@#@#@##@@##+##+.   ",
"   ....@#@@@#@#@#@##@@@#+#++.   ",
"   ....@@#@##@#@#@#@@@##++#+.   ",
"   ....@##@##@##@@##@@##+##+.   ",
"   ....@@@@@@@@@@@@@@@@+++++.   ",
"   ..........................   ",
"   ..........................   ",
"   ..........#################  ",
"   ..........#+++++#####+++++#  ",
"   ..........#+++++#####+++++#  ",
"   ..........#+++++#####+++++#  ",
"   ..........#+++++#####+++++#  ",
"   ..........#+++++#####+++++#  ",
"   ..........######+++++######  ",
"   ..........######+++++######  ",
"   ..........######+++++######  ",
"   ..........######+++++######  ",
"   ..........######+++++######  ",
"   ..........#+++++#####+++++#  ",
"   ..........#+++++#####+++++#  ",
"   ..........#+++++#####+++++#  ",
"   ..........#+++++#####+++++#  ",
"             #################  ",
"                                ",
"                                "};
