/* XPM */
static const char * scnico_xpm[] = {
"16 16 9 1",
". s mask c none",
"+	c #404040",
"@	c #8A0B2F",
"#	c #D98080",
"$	c #2C6424",
"%	c #000000",
"&	c #C96C6C",
"*	c #FFFFFF",
"=	c #9A9A9A",
"................",
"................",
"..+++++++.......",
"..+@@@##+.......",
"..+@@@##+.......",
"..+@@@@@+..$....",
"..++@@@++.$$....",
"...+@@@+..$$$...",
"...++@++.+%+....",
"....+++.++&*+...",
".....+..+&&&+...",
".....+..++&++...",
".==%+++%%+++%==.",
".===%%%==%%%===.",
".==============.",
"................"};
