/* XPM */
static char * sculptmode_xpm[] = {
"48 48 2 1",
"  s mask c none",
".	c #000000",
"                                                ",
"                                                ",
"                                                ",
"                                                ",
"                                                ",
"                                                ",
"                                                ",
"                              ..                ",
"                             ....               ",
"                            ......              ",
"                          .........             ",
"                         ..........             ",
"                        ............            ",
"                       ..............           ",
"                        ..............          ",
"                         ............           ",
"                          ..........            ",
"                     ..   ......... .           ",
"                    . ..   .......   .          ",
"                   ..  ..   ....  .  .          ",
"                   .    ..   ..   .   .         ",
"                  .      .         .   .        ",
"                 .      .           .   .       ",
"                 .     .             .   .      ",
"     .          .     .              .   .      ",
"     .          .    .                .   .     ",
"      .        .    .                  .   .    ",
"      .       .    .                    .  .    ",
"      .       .   .                     .  .    ",
"       .     .   .                       ..     ",
"       .    .   .                               ",
"    .       .  .                                ",
"    .      .  .                                 ",
"    .     .  .                                  ",
"     .    . .                                   ",
"     .   . .                                    ",
"     .  . .                                     ",
"        ..     ..                               ",
"            ...                                 ",
"                                                ",
"        ...         ....                        ",
"               .....                            ",
"                                                ",
"                                                ",
"                                                ",
"                                                ",
"                                                ",
"                                                "};
