/* XPM */
static char * sculptmode_xpm[] = {
"48 48 6 1",
". s mask c none",
"+	c #000000",
"@	c #AAAAAA",
"#	c #DDDDDD",
"$	c #888888",
"%	c #666666",
"................................................",
"................................................",
"................................................",
"................................................",
"................................................",
"........................++......................",
"......................++@@++....................",
"....................++@@@@@@++..................",
"..................++@@@@@@@@@@++................",
"..................++@@@@@@@@@@++................",
"..................+#++@@@@@@++$+................",
"..................+###++@@++$$$$+...............",
"..................+#####++$$$$$$+...............",
"..................+#####++$$$$$$$+..............",
"..................+#####++$$$$$$$+..............",
"..................+#####++$$$$$$+...............",
".................+######++$$$$$+................",
"................++######++$$$$+.................",
"...............+#######++$$$$$+.................",
"...............+#######++$$$$$+.................",
"................+######++$$$$$+.................",
"...............%+######++$$$$$+%%...............",
".............%%%%+#####++$$$$$+%%%%.............",
"...........%%%%%%+#####++$$$$$+%%%%%%...........",
".........%%%%%%@@+#####++$$$$$+@@%%%%%%.........",
".......%%%%%%@@@@+#####++$$$$$+@@@@%%%%%%.......",
".....%%%%%%@@@@@@+#####++$$$$$+@@@@@@%%%%%%.....",
".....%%%%@@@@@@@@++####++$$$$++@@@@@@@@%%%%.....",
".....%%%%%%@@@@@@@@++##++$$++@@@@@@@@%%%%%%.....",
".....%%%%%%%%@@@@@@@@++++++@@@@@@@@%%%%%%%%.....",
".....%%%#%%%%%%@@@@@@@@++@@@@@@@@%%%%%%$%%%.....",
".....%%%###%%%%%%@@@@@@@@@@@@@@%%%%%%$$$%%%.....",
".....%%%%####%%%%%%@@@@@@@@@@%%%%%%$$$$%%%%.....",
".....%%%%%%####%%%%%%@@@@@@%%%%%%$$$$%%%%%%.....",
".......%%%%%%####%%%%%%@@%%%%%%$$$$%%%%%%.......",
".........%%%%%%####%%%%%%%%%%$$$$%%%%%%.........",
"...........%%%%%%####%%%%%%$$$$%%%%%%...........",
".............%%%%%%###%%%%$$$%%%%%%.............",
"...............%%%%%%#%%%%$%%%%%%...............",
".................%%%%%%%%%%%%%%.................",
"...................%%%%%%%%%%...................",
".....................%%%%%%.....................",
".......................%%.......................",
"................................................",
"................................................",
"................................................",
"................................................",
"................................................"};
