/* XPM */
static char * sculptmode_xpm[] = {
"48 48 6 1",
". s mask c none",
"+	c #000000",
"@	c #666666",
"#	c #FFFFFF",
"$	c #AAAAAA",
"%	c #FF00FF",
"................................................",
"................................................",
"................................................",
"................................................",
"................................................",
"................................................",
"................................................",
"................................................",
"................................................",
"................................................",
"................................................",
"................................................",
".....................+++........................",
"...................++@#@+.......................",
"..................+@@@@@@++.....................",
"..................+@@@@@@@@++...................",
"................++@@$$$$$@@@@++.................",
"...............+@@@@$$$$$$$@@@@++...............",
"......+++++++++@@#@$$$$$$$$$$@@@@++.............",
"......+#@@@@@@@@@@@@@$$$$$$$$$$@@#@++...........",
".....+@@@$$$$$$$$@@@@@@@@@@@@@@@@@@@@++.........",
".....+@@$$$$$$$$$$$@@@@#@@@@@@@@@@@@@@@++.......",
"....+@@$$$$$$$$$$$$@@@@@@@$$$$$$$$$$$@@@@+++....",
"....+@@$$$$$$$$$$$@@@@%@@@@@$$$$$$$$$$$@@@#+....",
"....+@@$$$$$$$$$$@@@@%%%@@@@@@$$$$$$$@@@@@++....",
"....+#@@@@@@@@@@@@@@%%%%%%@@@@@@$$$@@@@@++......",
"....+++++++++++++#@%%%%%%%%%@@@@@@@@@@++........",
"................+@@%%%%%%%%%%%@@#@@@++..........",
"................+@@@%%%%%%%%%%@@@@++............",
".................+@@@%%%%%%%@@@@++..............",
"..................+@@@%%%%%@@@++................",
"...................+@@@%%%%@@+..................",
"....................+@@@%%@@+...................",
".....................+@@@@@@+...................",
"......................+@@@@+....................",
".......................+@#+.....................",
"........................+++.....................",
"................................................",
"................................................",
"................................................",
"................................................",
"................................................",
"................................................",
"................................................",
"................................................",
"................................................",
"................................................",
"................................................"};
