/* XPM */
static char * selectrandom_xpm[] = {
"32 32 2 1",
"   s mask c none",
".	c #000000",
"                                ",
"                                ",
"              .                 ",
"             . .                ",
"               .                ",
"           .                    ",
"          .    .                ",
"               .                ",
"        .                       ",
"       .       .                ",
"               .. .. .. .. ..   ",
"     .                     .    ",
"    .                     .     ",
"    .                           ",
"                        .       ",
"    .                  .        ",
"    .                           ",
"                     .          ",
"    .               .           ",
"    .                           ",
"                  .             ",
"    .            .              ",
"    .                           ",
"               .                ",
"      .       .                 ",
"       .                        ",
"                                ",
"         . .                    ",
"          .                     ",
"                                ",
"                                ",
"                                "};
