/* XPM */
static const char * skinmode_xpm[] = {
"53 48 6 1",
" 	c None",
".  s mask c none",
"+	c #000000",
"@	c #FF7F00",
"#	c #FCFCFC",
"$	c #FFFF00",
".....................................................",
".....................................................",
"......................+++++++........................",
"....................+++@@@@@+++......................",
"...................+@@@+++++@@@+.....................",
"...................+@@+++++++@@+.....................",
"...................+@++#+++#++@+.....................",
"...................+@+++++++++@+.....................",
"...................+@@+++++++@@+.....................",
"...................+@@@+++++@@@+.....................",
"...................++@@+++++@@++.....................",
"..................++@@@@+++@@@@++....................",
".................++@+++++++++++@++...................",
"................++@@+#+++++++#+@@++..................",
"...............++@@+++++++++++++@@++.................",
"..............++@@+++@@@+++@@@+++@@++................",
".............++@@+++@@@@+++@@@@+++@@++...............",
"............++@@+++@@+@@+++@@+@@+++@@++..............",
"...........++@++++@@++@@+++@@++@@++++$++.............",
"..........++@@+#+@@+++@@+++@@+++@@+#+$$++............",
".........++@@++++@++++@@+++@@++++@++++$$++...........",
"........++@@+++@@++.++@@+++@@++.++$$+++$$++..........",
".......++@@+++@@++..++@@+++@@++..++$$+++$$++.........",
".......+@@+++@@++...++@@+++@@++...++$$+++$$+.........",
".......+++++@@++....++@@+++@@++....++$$+++++.........",
"........+#+@@++....++@@@+++@@@++....++$$+#+..........",
"........+++@++.....+@+++++++++@+.....++$+++..........",
"..........+++......+@+.++.++.+@+......+++............",
"...................+@++++.++++@+.....................",
"...................+@++@+.+@++@+.....................",
"...................+@++@+.+@++@+.....................",
"...................+@++@+.+@++@+.....................",
"...................+@++@+.+@++@+.....................",
"...................+@++@+.+@++@+.....................",
"...................++++@+.+@++++.....................",
"...................++.+@+.+@+.++.....................",
"...................++++@+.+@++++.....................",
"...................+@++@+.+@++@+.....................",
"...................+@++@+.+@++@+.....................",
"...................+@++@+.+@++@+.....................",
"...................+@++@+.+@++@+.....................",
"...................+@++@+.+@++@+.....................",
"..................++@++@+.+@++@++....................",
".................++@@++++.++++@@++...................",
"................++@@+++#+.+#+++@@++..................",
"................+++++++++.+++++++++..................",
".....................................................",
"....................................................."};
