/* XPM */
static char * sknico_xpm[] = {
"16 16 4 1",
".  s mask c none",
"+	c #000000",
"@	c #FF8000",
"#	c #FFFFFF",
"................",
"...........+....",
"..........++....",
".........++.....",
".........++.....",
"........++......",
"........++......",
".+++++.+++.++++.",
".+@@@+.+#+.+@@+.",
".+@@+..+#+..+@+.",
".+@@+..+++..+@+.",
".+@@@+.....+@@+.",
".+@@@@+++++@@@+.",
".+@@@@@@@@@@@@+.",
".++++++++++++++.",
"................"};
