/* XPM */
static const char * sphico_xpm[] = {
"16 16 5 1",
".  s mask c none",
"+	c #000000",
"@	c #404040",
"#	c #FF7F00",
"$	c #808080",
"................",
".....+++@@......",
"...++@@@@@@@....",
"..+@@@####@@@...",
"..+@$######@@...",
".+@@########@@..",
".+@$########@@..",
".+@$########@@..",
".+@$########@@..",
".+@@########@@..",
"..+@$######@@...",
"..+@@$###@@@@...",
"...++@@@@@@@....",
".....+++@@......",
"................",
"................"};
