/* XPM */
static char * splico_xpm[] = {
"16 16 4 1",
". s mask c none",
"+	c #000000",
"@	c #FFFFFF",
"#	c #FF7F00",
"................",
".+++++++++......",
".+@+######+++...",
".+++++++++##+++.",
"..........+++@+.",
"..........+++++.",
".......+++##++..",
".....++###+++...",
"..+++##+++......",
"..+@++++........",
"..+++...........",
"..+#+++++.......",
"...+####+++++++.",
"....++++####+@+.",
"........+++++++.",
"................"};
