/* XPM */
static char * subico_xpm[] = {
"16 16 3 1",
".	s mask c none",
"+	c #000000",
"@	c #FF7F00",
"................",
".++++.....+++++.",
".+@@++....+@@@+.",
".+@@@++...+@@@+.",
".++@@@++..+@@@+.",
"..++@@@++.+++++.",
"...++@@@+.......",
"....++@@@++.....",
".....++@@@++....",
".......+@@@++...",
".+++++.++@@@++..",
".+@@@+..++@@@++.",
".+@@@+...++@@@+.",
".+@@@+....++@@+.",
".+++++.....++++.",
"................"};
