/* XPM */
static const char * symico_xpm[] = {
"16 16 3 1",
". s mask c none",
"+	c #000000",
"@	c #404040",
"................",
".......+........",
".....@@+@@......",
"....@..+@@@.....",
"...@...+@@@@....",
"...@...+@@@@....",
"...@.@.+@.@@....",
"...@...+@@@@....",
"...@...+@@@@....",
"....@..+@@@.....",
"....@..+@@@.....",
".....@.+@@......",
"......@+@.......",
".......+........",
"................",
"................"};
