/* XPM */
static char * tracker_xpm[] = {
"16 16 3 1",
". s mask c none",
"+	c #000000",
"@	c #FF0000",
"................",
"................",
"......+@@+......",
".......@@.......",
"......+@@+......",
".......@@.......",
"..+.+.@@@@.+.+..",
"..@@@@@..@@@@@..",
"..@@@@@..@@@@@..",
"..+.+.@@@@.+.+..",
".......@@.......",
"......+@@+......",
".......@@.......",
"......+@@+......",
"................",
"................"};
