/* XPM */
static const char * undo_xpm[] = {
"32 32 3 1",
"  s mask c none",
".	c #000000",
"+	c #FF7F00",
"                                ",
"                                ",
"                                ",
"                                ",
"                                ",
"                                ",
"                   ..           ",
"                 ....           ",
"               ......           ",
"             .....+..           ",
"           .....+++..........   ",
"         .....+++++..........   ",
"       .....+++++++..........   ",
"     .....+++++++++++++++++..   ",
"   .....+++.+.+...+..++...+..   ",
"   ...+++++.+.+...+.+.+.+.+..   ",
"   ...+++++.+.+.+.+.+.+.+.+..   ",
"   .....++++.++.+.+..++...+..   ",
"     .....+++++++++++++++++..   ",
"       .....+++++++..........   ",
"         .....+++++..........   ",
"           .....+++..........   ",
"             .....+..           ",
"               ......           ",
"                 ....           ",
"                   ..           ",
"                                ",
"                                ",
"                                ",
"                                ",
"                                ",
"                                "};
