/* XPM */
static char * unselectarea_xpm[] = {
"32 32 4 1",
" 	c None",
".  s mask c none",
"+	c #000000",
"@	c #FF0000",
"................................",
"................................",
"................................",
"................................",
"................................",
"...+.+++.++++.++++.++++.+++.+...",
"................................",
"...+........................+...",
"...+........................+...",
"...+.....++...........++....+...",
"...+.....+@+.........+@+....+...",
"..........+@+.......+@+.........",
"...+.......+@+.....+@+......+...",
"...+........+@+...+@+.......+...",
"...+.........+@+.+@+........+...",
"...+..........+@+@+.........+...",
"...............+@+..............",
"...+..........+@+@+.........+...",
"...+.........+@+.+@+........+...",
"...+........+@+...+@+.......+...",
"...+.......+@+.....+@+......+...",
"..........+@+.......+@+.........",
"...+.....+@+.........+@+....+...",
"...+.....++...........++....+...",
"...+........................+...",
"...+........................+...",
"................................",
"...+.+++.++++.++++.++++.+++.+...",
"................................",
"................................",
"................................",
"................................"};
