/* XPM */
static const char * uvwmapmode_xpm[] = {
"48 48 3 1",
"  s mask c none",
".	c #000000",
"+	c #FFFFFF",
"                                                ",
"                                                ",
"  ............................................  ",
"  .+++++++.......+++++++.......+++++++........  ",
"  .+++++++.......+++++++.......+++++++........  ",
"  .+++++++.......+++++++.......+++++++........  ",
"  .+++++++.......+++++++.......+++++++........  ",
"  .+++++++.......+++++++.......+++++++........  ",
"  .+++++++.......+++++++.......+++++++........  ",
"  .+++++++.......+++++++.......+++++++........  ",
"  ........+++++++.......+++++++.......+++++++.  ",
"  ........+++++++.......+++++++.......+++++++.  ",
"  ........+++++++.......+++++++.......+++++++.  ",
"  ........+++++++.......+++++++.......+++++++.  ",
"  ........+++++++.......+++++++.......+++++++.  ",
"  ........+++++++.......+++++++.......+++++++.  ",
"  ........+++++++.......+++++++.......+++++++.  ",
"  .+++++++.......+++++++.......+++++++........  ",
"  .+++++++.......+++++++.......+++++++........  ",
"  .+++++++.......+++++++.......+++++++........  ",
"  .+++++++.......+++++++.......+++++++........  ",
"  .+++++++.......+++++++.......+++++++........  ",
"  .+++++++.......+++++++.......+++++++........  ",
"  .+++++++.......+++++++.......+++++++........  ",
"  ........+++++++.......+++++++.......+++++++.  ",
"  ........+++++++.......+++++++.......+++++++.  ",
"  ........+++++++.......+++++++.......+++++++.  ",
"  ........+++++++.......+++++++.......+++++++.  ",
"  ........+++++++.......+++++++.......+++++++.  ",
"  ........+++++++.......+++++++.......+++++++.  ",
"  ........+++++++.......+++++++.......+++++++.  ",
"  .+++++++.......+++++++.......+++++++........  ",
"  .+++++++.......+++++++.......+++++++........  ",
"  .+++++++.......+++++++.......+++++++........  ",
"  .+++++++.......+++++++.......+++++++........  ",
"  .+++++++.......+++++++.......+++++++........  ",
"  .+++++++.......+++++++.......+++++++........  ",
"  .+++++++.......+++++++.......+++++++........  ",
"  ........+++++++.......+++++++.......+++++++.  ",
"  ........+++++++.......+++++++.......+++++++.  ",
"  ........+++++++.......+++++++.......+++++++.  ",
"  ........+++++++.......+++++++.......+++++++.  ",
"  ........+++++++.......+++++++.......+++++++.  ",
"  ........+++++++.......+++++++.......+++++++.  ",
"  ........+++++++.......+++++++.......+++++++.  ",
"  ............................................  ",
"                                                ",
"                                                "};
