/* XPM */
static char * vertexmode_test_xpm[] = {
"48 48 7 1",
". s mask c none",
"+	c #000000",
"@	c #FF7700",
"#	c #666666",
"$	c #AAAAAA",
"%	c #DDDDDD",
"&	c #888888",
"................................................",
"................................................",
"................................................",
".....................++++++.....................",
".....................+@@@@+.....................",
".....................+@@@@+.....................",
".....................+@@@@+.....................",
"...................+++@@@@+++...................",
".................++##++++++##++.................",
"...............++####$$$$$$####++...............",
".............++####$$$$$$$$$$####++.............",
"...........++####$$$$$$$$$$$$$$####++...........",
"...++++++++####$$$$$$$$$$$$$$$$$$####++++++++...",
"...+@@@@+####$$$$$$$$$$$$$$$$$$$$$$####+@@@@+...",
"...+@@@@+##$$$$$$$$$$$$$$$$$$$$$$$$$$##+@@@@+...",
"...+@@@@+$$$$$$$$$$$$$$$$$$$$$$$$$$$$$$+@@@@+...",
"...+@@@@+##$$$$$$$$$$$$$$$$$$$$$$$$$$##+@@@@+...",
"...++++++####$$$$$$$$$$$$$$$$$$$$$$####++++++...",
".....+##%######$$$$$$$$$$$$$$$$$$######&##+.....",
".....+##%%%######$$$$$$$$$$$$$$######&&&##+.....",
".....+##%%%%%######$$++++++$$######&&&&&##+.....",
".....+##%%%%%%%######+@@@@+######&&&&&&&##+.....",
".....+##%%%%%%%%%####+@@@@+####&&&&&&&&&##+.....",
".....+##%%%%%%%%%%%##+@@@@+##&&&&&&&&&&&##+.....",
".....+##%%%%%%%%%%%%%+@@@@+&&&&&&&&&&&&&##+.....",
".....+##%%%%%%%%%%%%%++++++&&&&&&&&&&&&&##+.....",
".....+##%%%%%%%%%%%%%%####&&&&&&&&&&&&&&##+.....",
".....+##%%%%%%%%%%%%%%####&&&&&&&&&&&&&&##+.....",
".....+##%%%%%%%%%%%%%%####&&&&&&&&&&&&&&##+.....",
".....+##%%%%%%%%%%%%%%####&&&&&&&&&&&&&&##+.....",
"...++++++%%%%%%%%%%%%%####&&&&&&&&&&&&&++++++...",
"...+@@@@+%%%%%%%%%%%%%####&&&&&&&&&&&&&+@@@@+...",
"...+@@@@+%%%%%%%%%%%%%####&&&&&&&&&&&&&+@@@@+...",
"...+@@@@+##%%%%%%%%%%%####&&&&&&&&&&&##+@@@@+...",
"...+@@@@+####%%%%%%%%%####&&&&&&&&&####+@@@@+...",
"...++++++++####%%%%%%%####&&&&&&&#####+++++++...",
"...........++####%%%%%####&&&&&#####++..........",
".............++####%%%####&&&#####++............",
"...............++####%####&#####++..............",
".................++##++++++###++................",
"...................+++@@@@++++..................",
".....................+@@@@+.....................",
".....................+@@@@+.....................",
".....................+@@@@+.....................",
".....................++++++.....................",
"................................................",
"................................................",
"................................................"};
