/* XPM */
static const char * vertexmode_xpm[] = {
"48 48 4 1",
"  s mask c none",
".	c #000000",
"+	c #FF7F00",
"@	c #FCFCFC",
"                                                ",
"                                                ",
"                                                ",
"                                                ",
"    ......     ......      ......     ......    ",
"    ......     ......      ......     ......    ",
"    ..++.........++..........++.........++..    ",
"    ..++.........++..........++.........++..    ",
"    ......     ......      ......     ......    ",
"    ......     ......      ......     ......    ",
"      ..         ..          ..         ..      ",
"      ..         ..          ..         ..      ",
"      ..         ..          ..         ..      ",
"      ..         ..          ..         ..      ",
"      ..         ..          ..         ..      ",
"    ......     ......      ......     ......    ",
"    ......     ......      ......     ......    ",
"    ..++.........++..........++.........@@..    ",
"    ..++.........++..........++.........@@..    ",
"    ......     ......      ......     ......    ",
"    ......     ......      ......     ......    ",
"      ..         ..          ..         ..      ",
"      ..         ..          ..         ..      ",
"      ..         ..          ..         ..      ",
"      ..         ..          ..         ..      ",
"      ..         ..          ..         ..      ",
"      ..         ..          ..         ..      ",
"    ......     ......      ......     ......    ",
"    ......     ......      ......     ......    ",
"    ..++.........++..........@@.........@@..    ",
"    ..++.........++..........@@.........@@..    ",
"    ......     ......      ......     ......    ",
"    ......     ......      ......     ......    ",
"      ..         ..          ..         ..      ",
"      ..         ..          ..         ..      ",
"      ..         ..          ..         ..      ",
"      ..         ..          ..         ..      ",
"      ..         ..          ..         ..      ",
"    ......     ......      ......     ......    ",
"    ......     ......      ......     ......    ",
"    ..++.........@@..........@@.........@@..    ",
"    ..++.........@@..........@@.........@@..    ",
"    ......     ......      ......     ......    ",
"    ......     ......      ......     ......    ",
"                                                ",
"                                                ",
"                                                ",
"                                                "};
