/* XPM */
static char * vibrate_xpm[] = {
"16 16 4 1",
".  s mask c none",
"+	c #000000",
"@	c #FF0000",
"#	c #6199C5",
"................",
"................",
".........+......",
"..@@....++..+...",
"...@@..+#+.+....",
"....@@+##+..+...",
"...++@@##+...+..",
"...+##@@#+..+...",
"...+###@@+.+....",
"...+++##@@..+...",
"......+##@@..+..",
".......+#+@.+...",
"........++.+....",
".........+..+...",
"................",
"................"};
