/* XPM */
static const char * xaxis_xpm[] = {
"32 32 4 1",
"  s mask c none",
".	c #000000",
"+	c #FF7F00",
"@	c #FF0000",
"                                ",
"                                ",
"                                ",
"   .....                .....   ",
"   ......              ......   ",
"   ..++...            ...++..   ",
"   ..+++...          ...+++..   ",
"   ...+++...        ...+++...   ",
"    ...+++...      ...+++...    ",
"     ...+++...    ...+++...     ",
"      ...+++...  ...+++...      ",
"       ...+++......+++...       ",
"        ...+........+...        ",
"         ....@@@@@@....         ",
"          ...@@@@@@...          ",
"           ..@@@@@@..           ",
"           ..@@@@@@..           ",
"          ...@@@@@@...          ",
"         ....@@@@@@....         ",
"        ...+........+...        ",
"       ...+++......+++...       ",
"      ...+++...  ...+++...      ",
"     ...+++...    ...+++...     ",
"    ...+++...      ...+++...    ",
"   ...+++...        ...+++...   ",
"   ..+++...          ...+++..   ",
"   ..++...            ...++..   ",
"   ......              ......   ",
"   .....                .....   ",
"                                ",
"                                ",
"                                "};
