/* XPM */
static const char * yaxis_xpm[] = {
"32 32 4 1",
"  s mask c none",
".	c #000000",
"+	c #FF7F00",
"@	c #00FF00",
"                                ",
"                                ",
"                                ",
"   .....               .....    ",
"   ......             ......    ",
"   ..++...           ...++..    ",
"   ..+++...         ...+++..    ",
"   ...+++...       ...+++...    ",
"    ...+++...     ...+++...     ",
"     ...+++...   ...+++...      ",
"      ...+++.......+++...       ",
"       ...+++.....+++...        ",
"        ...+.......+...         ",
"         ....@@@@@....          ",
"          ...@@@@@...           ",
"           ..@@@@@..            ",
"            .@@@@@.             ",
"            .@@@@@.             ",
"            .@@@@@.             ",
"            .......             ",
"             ..+..              ",
"             ..+..              ",
"             ..+..              ",
"             ..+..              ",
"             ..+..              ",
"             ..+..              ",
"             ..+..              ",
"             .....              ",
"             .....              ",
"                                ",
"                                ",
"                                "};
